<?xml version="1.0" encoding="UTF-8"?>
<svg id="uuid-5461e25a-98ab-40f3-b202-060962e76993" data-name="Ebene 1" xmlns="http://www.w3.org/2000/svg" width="171.4" height="213.8" viewBox="0 0 171.4 213.8">
  <path d="M85.7,1h84.7v127.1c0,3.7-1.2,84.7-84.7,84.7V1h0Z" style="fill: #009640; stroke: #1e1e1c; stroke-miterlimit: 3.9; stroke-width: 2px;"/>
  <line x1="85.7" y1="1" x2="1" y2="1" style="fill: none; stroke: #010101; stroke-miterlimit: 10; stroke-width: 2px;"/>
  <path d="M1,1v127.1s-.6,84.7,84.7,84.7V1H1Z" style="fill: #fff; stroke: #010101; stroke-miterlimit: 10; stroke-width: 2px;"/>
  <polygon points="58.2 80.6 43.5 65.1 29.5 81.2 17 81.2 37.8 58.3 21 39.2 43.9 14.1 66.7 39.1 49.9 58.3 70.1 81.2 58.2 80.6 58.2 80.6" style="fill: #1d1d1b; stroke: #010101; stroke-miterlimit: 10; stroke-width: 2px;"/>
  <polygon points="32.8 39.4 43.8 27.6 55 39.3 43.5 51.7 32.8 39.4 32.8 39.4" style="fill: #fff; stroke-width: 0px;"/>
  <polygon points="1.2 90.9 85.9 90.9 85.9 122.4 1.2 122.4 1.2 90.9 1.2 90.9" style="fill: #e20e17; stroke: #1e1e1c; stroke-miterlimit: 3.9; stroke-width: 1.5px;"/>
</svg>