<svg height="36.562717mm" viewBox="0 0 31.78824 36.562717" width="31.78824mm" xmlns="http://www.w3.org/2000/svg"><g transform="translate(-181.963233 -94.894196)"><ellipse cx="197.745468" cy="115.48818" fill="#fff" rx="15.168004" ry="15.530787"/><path d="m181.982358 94.894196h31.749989v20.193005h-31.749989z" fill="#fff"/><path d="m272.18359 3.5996094v36.3593746 36.361328h56.06836 56.07032l-.34961 3.958985c-.192 2.17799-.70366 5.688781-1.13672 7.800781-.43302 2.112-1.32124 5.459434-1.97461 7.439453-.65337 1.979981-2.13567 5.562339-3.29492 7.960939-1.1593 2.3986-3.38155 6.07076-4.9375 8.16015-1.55592 2.0894-4.50156 5.38022-6.54493 7.3125-2.0434 1.93233-5.15606 4.44216-6.91796 5.57813-1.76194 1.13594-4.49999 2.71378-6.08399 3.50586-1.584.79211-4.5542 2.00025-6.59961 2.68359-2.04544.68338-5.4026 1.56071-7.46094 1.95118-2.05829.39046-5.89323.81724-8.52148.94726-2.62825.13039-6.39889.0378-8.37891-.20898-1.97998-.24492-5.2192-.85521-7.19921-1.35547-1.97999-.50026-5.34401-1.58157-7.47657-2.4043-2.13248-.82273-5.77922-2.62931-8.10351-4.01367-2.35404-1.40205-6.09435-4.27418-8.44336-6.48438-2.31935-2.18222-5.29156-5.42339-6.60547-7.20117-1.31392-1.77774-3.15408-4.63558-4.08789-6.35156-.93385-1.71602-2.37246-4.83007-3.19727-6.919922-.8248-2.089852-2.01471-5.928302-2.64453-8.529297-.62978-2.601033-1.27693-6.290066-1.43945-8.199219-.16252-1.909115-.3955-3.956791-.51758-4.550781l-.22266-1.080079h-1.87109-1.87305l.30664 4.294922c.16781 2.363112.75659 6.39034 1.31055 8.947266.554 2.556926 1.5556 6.292744 2.22461 8.302734.66901 2.009991 2.18058 5.588506 3.35937 7.953126 1.17876 2.36462 3.25902 5.9172 4.62305 7.89453 1.36407 1.97737 4.21968 5.33492 6.34571 7.46094 2.12602 2.12602 5.53585 5.0188 7.57812 6.42773 2.04227 1.4089 5.5948 3.4937 7.89453 4.63282 2.29969 1.13914 6.01774 2.63957 8.26172 3.33398 2.24402.69445 5.69971 1.55501 7.67969 1.91406 1.98002.35906 6.54133.67484 10.13672.70508 3.88229.0302 8.2047-.23887 10.64257-.66406 2.25771-.39372 5.85401-1.26853 7.99024-1.94336 2.13623-.67484 5.33854-1.87861 7.11719-2.67578 1.77864-.79722 5.37543-2.8742 7.99218-4.61524 2.61676-1.74104 6.43041-4.83864 8.47657-6.88476 2.04616-2.04616 4.83933-5.30511 6.20703-7.24219 1.36766-1.93712 3.52001-5.57405 4.7832-8.08203 1.26319-2.50802 2.98143-6.69582 3.81641-9.306642.83497-2.610785 1.93984-7.222573 2.45703-10.248047.51723-3.025437.9414-6.559784.9414-7.853516v-2.351563h-1.80078-1.79882v-36.361328-36.3593746h-56.4004zm42.81055 2.1601562c.28509 0 .64746.5943106.80469 1.3203125.15734.7259981.80599 3.4675839 1.4414 6.0917969.77454 3.198663 2.18636 6.893798 4.28321 11.212891 1.72029 3.54342 3.12695 7.042653 3.12695 7.77539s-.66564 2.756819-1.48047 4.498047c-1.39181 2.974262-1.44898 3.316141-.94922 5.646485.29258 1.364258 1.19239 3.719162 2 5.234374.80761 1.515251 2.0992 3.360108 2.8711 4.09961l1.40429 1.345703 1.62696-1.578125c.89525-.867742 2.34316-3.122862 3.21679-5.011719 1.12895-2.440932 1.58835-4.12817 1.58789-5.833984-.00056-1.744101-.35587-3.003226-1.29882-4.603516-.71369-1.211187-1.29688-2.82406-1.29688-3.585937 0-.76184 1.40272-4.327658 3.11719-7.921875 1.96441-4.118136 3.55493-8.292762 4.30078-11.291016.65099-2.616767 1.30339-5.3521268 1.45117-6.0781249.14755-.7260019.50213-1.3203125.78711-1.3203125.28505 0 1.26092.3527906 2.16797.7832032.90701.4304125 1.87127 1.1986045 2.14453 1.7089843.34356.6417298.33852 1.6657845-.0156 3.3164059-.28158 1.312774-1.28375 4.450242-2.22852 6.972657-.94473 2.522422-1.61653 4.688153-1.49219 4.8125.12427.12427 1.23818-1.017298 2.47461-2.535157 1.23644-1.517858 2.74046-3.744808 3.34375-4.949218.60329-1.204411 1.36933-3.053375 1.70117-4.109375.33196-1.056.79094-2.1239764 1.02149-2.3730472.25489-.2755389 1.00288.1012612 1.91015.9609372 1.39801 1.324479 1.47627 1.57784 1.2461 4.052735-.13493 1.452-.72051 3.696907-1.30078 4.988281-.58027 1.291389-1.68779 3.421733-2.46289 4.736328-.77515 1.314633-1.31853 2.482254-1.20703 2.59375.11149.111496 1.37378-1.092386 2.80664-2.675781 1.43289-1.583396 3.35011-4.190189 4.25976-5.792969.90966-1.602758 1.92358-3.286856 2.25391-3.742188.55888-.770721.66321-.752812 1.51758.253907.50475.594742 1.06127 1.91979 1.23437 2.945312.17348 1.025522.0884 2.699034-.1875 3.71875-.31956 1.180914-1.80285 3.331602-4.08398 5.923828-1.96982 2.238426-3.50711 4.145242-3.41602 4.236329.0911.09105.78071-.162173 1.53125-.5625.75054-.400328 2.6037-1.714933 4.11914-2.919922s3.56797-3.25666 4.56055-4.558594c.99254-1.301934 2.02097-2.307383 2.28516-2.236328.264.07094.79116.680369 1.17187 1.355468.57048 1.011893.58852 1.570087.10742 3.175782-.32999 1.101467-1.63167 3.096804-2.99805 4.591797-1.32899 1.454135-3.85054 3.666503-5.60156 4.916015-1.75105 1.249512-2.94576 2.350888-2.65625 2.447266.28936.09645 1.88192-.177501 3.54102-.607422s3.86245-1.211755 4.89453-1.738281c1.03207-.526526 2.7966-1.806497 3.92187-2.84375 1.12528-1.037216 2.21104-1.884766 2.41211-1.884766s.26668 1.18296.14649 2.630859c-.1386 1.671534-.55379 3.008327-1.13867 3.66211-.50661.566324-1.72795 1.542117-2.71289 2.167969-.98491.625852-2.60454 1.450941-3.59961 1.832031-.99508.38109-3.41712 1.157177-5.38282 1.726562-2.3546.682054-3.33807 1.162407-2.88086 1.404297.3817.202129 1.6324.509358 2.7793.683594 1.1469.174539 3.41104.07687 5.03125-.216797 1.62021-.293783 4.20401-1.043742 5.74024-1.667969 2.22916-.905763 2.84303-1.003505 3.04296-.482421.13781.359092-.0807 1.293721-.48632 2.078124-.40562.784366-1.40125 1.984718-2.21094 2.666016s-2.27409 1.468803-3.25586 1.75c-.98181.281159-4.34655.645823-7.47656.8125-5.06011.269556-5.56613.374074-4.56055.939453.62203.34972 2.50383 1.072934 4.18164 1.605469 2.05376.651969 4.36729.966797 7.08008.966797 2.21616 0 4.0293.175948 4.0293.390625 0 .214601-.59431.958901-1.32032 1.654297-.72601.695395-2.12201 1.599762-3.10351 2.009765-.98155.410004-2.81761.731915-4.08008.716797-1.26248-.01568-4.23924-.639468-6.61523-1.386719-2.37601-.747288-4.40621-1.280349-4.50977-1.183593-.1036.0966.0846.504448.41797.90625.33347.401801 1.87336 1.577287 3.42187 2.611328 1.68919 1.128038 4.16899 2.22748 6.19727 2.75 2.48028.638929 3.34354 1.065928 3.24414 1.601562-.0745.401537-.88928 1.121386-1.8125 1.59961-1.21773.630727-2.35272.807365-4.12891.642578-1.49998-.139314-3.82424-.917898-6-2.009766-1.95333-.980296-4.15723-2.210721-4.89843-2.734375-.74121-.523653-1.47231-.826899-1.625-.673828-.15292.152882.93626 1.778951 2.41992 3.615234 1.48365 1.836284 3.67279 4.04012 4.86523 4.896485 1.19248.856365 2.16797 1.713431 2.16797 1.904297 0 .190979-.34217.47842-.75976.638672-.41757.160252-1.56236.291015-2.54493.291015-.98256 0-2.89739-.552547-4.2539-1.228515-1.43505-.715087-3.71623-2.564943-5.45508-4.423828-2.97252-3.177412-2.98684-3.186079-2.67578-1.53125.17204.915174 1.15294 3.32958 2.17969 5.365234 1.0267 2.035653 1.74991 3.816496 1.60742 3.958984-.14238.142488-1.37711.259766-2.7461.259766-1.79406 0-2.94199-.305088-4.10937-1.091797-.89076-.600265-2.09658-1.798777-2.67969-2.664063-.58314-.865285-1.63121-3.29024-2.33008-5.388671-.69883-2.098394-1.45115-3.814453-1.67187-3.814453-.22065 0-.97304 1.716059-1.67188 3.814453-.69887 2.098431-1.74889 4.523386-2.33203 5.388671-.5831.865286-1.78893 2.063798-2.67969 2.664063-1.18348.797405-2.3102 1.091797-4.1875 1.091797-1.56313 0-2.57031-.20892-2.57031-.533203 0-.293178.75586-2.074172 1.67969-3.958985.92383-1.884812 1.81814-4.14113 1.98633-5.013672.2985-1.54953.23503-1.515008-2.70703 1.548829-1.65668 1.725241-4.10438 3.682346-5.43946 4.347656-1.41033.702803-3.24255 1.204951-4.37304 1.201172-1.07014-.004-2.27-.22863-2.66602-.5-.61115-.419188-.54023-.617407.46875-1.3125.65374-.450369 1.90948-1.448268 2.79102-2.216797.88157-.768529 2.58463-2.670897 3.7832-4.228516 1.19852-1.557581 2.06077-2.950947 1.91601-3.095703-.14464-.144642-.88235.178214-1.63867.716797-.75636.538583-2.95698 1.771756-4.89062 2.742188-2.37547 1.192138-4.39075 1.836217-6.21289 1.984374-2.16322.175749-3.01142.02075-4.29102-.785156-.87734-.552567-1.51705-1.243754-1.41992-1.535156.0971-.291364 1.90461-1.09441 4.01562-1.785156 2.12414-.695055 4.92682-2.057862 6.27539-3.050782 1.34026-.986834 2.73451-2.160782 3.09961-2.609374.58576-.719925.56101-.776596-.21289-.486329-.48226.180926-2.74123.868787-5.01953 1.529297-2.27833.66051-5.07684 1.201172-6.21875 1.201172-1.14187 0-2.87982-.33609-3.86133-.746094-.9815-.410003-2.3775-1.31437-3.10351-2.009765-.72601-.695396-1.32031-1.43962-1.32031-1.654297 0-.214828 1.81313-.390625 4.02929-.390625 2.7128 0 5.02632-.316857 7.08008-.96875 1.67781-.532536 3.55961-1.253909 4.18164-1.603516 1.00558-.565228.49956-.669973-4.56054-.939453-3.13002-.166715-6.49281-.533256-7.47461-.814453-.98177-.281121-2.47058-1.085541-3.30665-1.789063-.8361-.703559-1.82094-2.000897-2.18945-2.882812-.36862-.881953-.55182-1.794903-.4082-2.027344.1437-.232516 1.50388.08371 3.02344.701172 1.51959.617462 4.08877 1.362581 5.70898 1.65625s3.88435.391033 5.03125.216797c1.1469-.174387 2.37721-.471936 2.73438-.660156.38891-.205115-1.57864-1.063056-4.90625-2.138672-3.05617-.987893-6.41908-2.420394-7.47266-3.183594s-2.24688-2.028399-2.65234-2.8125c-.4054-.784101-.73829-2.300026-.73829-3.369141 0-1.069114.13808-1.945312.30664-1.945312.16846 0 1.26312.883987 2.4336 1.962891s3.24622 2.451348 4.61328 3.050781c1.36706.599471 3.63293 1.361895 5.0332 1.693359 1.40024.330709 2.65773.490713 2.79492.353516.13709-.137084-1.33423-1.422499-3.26757-2.855469-1.93331-1.433008-4.3457-3.529372-5.36133-4.658203-1.01567-1.128831-2.14914-2.777688-2.51953-3.664063-.37025-.886374-.67383-2.025952-.67383-2.533203 0-.507212.42127-1.431443.93555-2.054687l.93554-1.134766.82032 1.201172c.45172.659981 1.95458 2.316022 3.33789 3.681641 1.38327 1.365581 3.72826 3.288984 5.21093 4.273437 1.48267.984416 2.79552 1.690816 2.91797 1.56836.1225-.122457-1.03144-1.636302-2.56445-3.363282-1.53301-1.726979-3.29237-3.848021-3.9082-4.71289-.84042-1.180082-1.1298-2.253653-1.15625-4.300782-.0251-1.847005.23629-3.144148.80859-4.017578.46484-.709455 1.05222-1.289062 1.30469-1.289062.25255 0 .92079.91706 1.48633 2.039062.56553 1.121998 1.95383 3.335892 3.08398 4.919922 1.13015 1.584 2.85836 3.636528 3.8418 4.560547.98343.924095 1.69945 1.465361 1.58984 1.201172-.10968-.264-1.25489-2.604271-2.54492-5.199219-1.62403-3.26674-2.40861-5.480781-2.54883-7.199218-.17397-2.133563-.0442-2.629824.92383-3.527344.61931-.574231 1.40556-1.1134615 1.74609-1.199219.38079-.095856 1.1378 1.164274 1.9668 3.269531.74169 1.883694 1.85564 4.150757 2.47461 5.039063.61897.88831 1.86945 2.53925 2.7793 3.667969.90988 1.128718 1.74876 1.958269 1.86328 1.84375.11474-.114747-.55541-2.250249-1.49024-4.746094-.93479-2.495845-1.92199-5.530717-2.19336-6.742188-.30652-1.366507-.32763-2.6384826-.0566-3.3515622.24034-.6321789 1.18952-1.5068731 2.10938-1.9433594.91982-.4364825 1.90447-.7929688 2.18945-.7929688z" stroke-width=".48" transform="matrix(.26458333 0 0 .26458333 110.93863 94.894196)"/><g fill="#fe0000"><path d="m351.10156 80.160156c-2.50204 0-4.90745.344986-7.08008 1.015625-1.80982.558614-4.91146 1.830531-6.89257 2.826172-1.98108.995679-6.62541 3.812786-10.32032 6.259766-3.6949 2.446941-8.01365 5.063952-9.59765 5.814453s-3.31185 1.348849-3.83985 1.326172c-.58193-.02332-.0617-.424823 1.32032-1.019532 1.25401-.539603 2.27929-1.147404 2.27929-1.349609 0-.202394-.80882-.694594-1.79882-1.09375-.99001-.399118-3.85331-1.949035-6.36133-3.445312-4.19834-2.504769-4.72986-2.699612-6.69922-2.44336-1.17642.153147-4.19917 1.226971-6.71875 2.386719-2.51955 1.159748-5.39909 2.366365-6.39844 2.679688-.99934.313398-2.15202 1.079616-2.56055 1.703124-.45248.689802-.61362 1.538905-.41406 2.167969.2778.875074.5601.983566 1.83985.703125.83142-.182097 2.91683-.493295 4.63281-.689453 1.71602-.196535 4.05367-.260941 5.19531-.144531 1.28001.130431 2.18363.495689 2.35938.953125.17461.455055-.20639 1.165033-.98633 1.835937-.69933.601516-3.1343 1.800766-5.41211 2.666016-3.87069 1.47027-4.05678 1.60217-2.82813 2.01172.85826.28618 2.41746.22749 4.49219-.16992 1.74788-.33479 4.54136-.7063 6.20703-.82422l3.0293-.21289 4.00781 4.24219c2.20407 2.33321 4.66517 4.62706 5.4707 5.09765l1.46485.85547.99414-1.81641c.67302-1.23167.89733-1.4293.68945-.61523-.16864.65998-.69719 2.10183-1.17383 3.20508-.53359 1.23518-1.42517 2.29489-2.32031 2.75781-.79956.41344-2.2967.72013-3.32617.67969-1.02947-.0404-2.15216.10009-2.49609.3125-.45585.28176-.25807.57775.73046 1.0957l1.35547.71094-1.40625.7793-1.4082.77929 1.67969.1543c.92402.0848 1.86011.32867 2.08007.54297.21986.21426-.19446.94074-.92187 1.61523l-1.32227 1.22656 1.28516.32422c.85678.21502 1.70177.0501 2.5293-.49218.68337-.44777 1.60038-1.47385 2.03711-2.2793.43672-.80542 1.2259-1.98637 1.7539-2.625.528-.63867 2.0377-1.74385 3.35547-2.45508 2.04684-1.10479 2.5513-1.67628 3.46485-3.93164.68258-1.68518 1.07642-2.24417 1.08398-1.54492.008.60245-.29065 1.82669-.66406 2.7207-.37357.89397-.55384 1.75085-.40039 1.9043.15356.15382 2.35564.27929 4.89258.27929 2.53693 0 6.44262-.22403 8.67968-.49804 2.23707-.27409 4.41823-.60512 4.84766-.73438.46129-.13893.89828-.97047 1.06836-2.0332.15821-.98944.63472-2.22497 1.05859-2.74609.76581-.94281.76979-.9443.43945.01-.18274.528-.44029 1.82796-.57031 2.88672-.19948 1.62418-.0331 2.12705 1.05664 3.2168.71037.71036 2.08199 1.54807 3.04883 1.86328.9668.31506 1.90446.80071 2.08399 1.07812.17952.27753.10945.9115-.15625 1.40821-.28381.5303-.78155.78752-1.20508.625-.39674-.15194-1.24381-.14463-1.88282.0156-.63904.16037-1.1621.48329-1.1621.71875 0 .23524.43293.42774.96093.42774s.95899.22396.95899.49609c0 .27228-.32472.61955-.72071.77148-.39609.15198-.71875.4664-.71875.69922s.48609.37134 1.08008.3086c.86136-.0912 1.05593.10356.96485.96484-.0627.59399.004 1.08008.14843 1.08008.15097-.006 1.81353-1.30785 3.70313-2.89844 1.89411-1.59435 3.61811-3.20969 3.83203-3.5918.21392-.38214.17277-1.09961-.0918-1.59375-.26445-.49409-1.0285-1.25778-1.69922-1.69726-1.00142-.65613-1.2207-1.17858-1.2207-2.91992 0-1.16633.23418-2.26491.51953-2.44141.30981-.19151.4821.0395.42578.57227-.0503.49088-.0693 1.18996-.0391 1.55468.0413.49524.55542.59649 2.03125.39844 1.08703-.14581 3.37269-.95143 5.07813-1.79101 1.76216-.86752 4.32782-2.72983 5.94531-4.3125 1.8912-1.85054 3.34912-3.86063 4.3457-5.99024 1.31225-2.804597 1.46783-3.558735 1.24219-6.046874-.17178-1.89445-.729-3.685435-1.67188-5.363281-.78822-1.402658-2.302-3.145815-3.41601-3.935547-1.59424-1.130154-2.63035-1.45725-5.10938-1.615234-1.84713-.117392-3.11132-.0082-3.11132.271484 0 .258898.95962.837887 2.13086 1.285156 1.17119.447307 2.88528 1.651605 3.81054 2.675782.92527 1.024176 1.94021 2.718695 2.25391 3.765625.31975 1.067074.42631 2.665002.24414 3.636718-.19147 1.020586-.98793 2.396135-1.9375 3.345701-.88702.88702-2.65919 1.97859-3.9375 2.42578-1.27828.4472-4.38967.93627-6.91602 1.08594-3.29333.1951-5.95032.0326-9.38281-.57031l-4.78711-.83984-3.33789 1.69531c-1.83651.93316-3.76378 2.01624-4.2832 2.40625-.86963.65299-1.16559.53738-3.72656-1.47461-1.98766-1.56159-3.84113-2.49951-6.4961-3.28516-3.07427-.90958-3.41954-1.10232-2.00195-1.125.94208-.0141 2.81234.30071 4.15429.69922 1.34196.39851 3.54049 1.48214 4.88672 2.4082l2.44727 1.6836 4.91992-2.38477c2.78075-1.34789 6.3663-2.66949 8.24805-3.04101 2.00474-.395985 3.52885-.973708 3.83008-1.451176.33713-.531893.34343-.951485.0195-1.27539-.32402-.323981-1.74387-.180377-4.31055.4375-2.1044.506608-4.73837 1.246887-5.85352 1.644531-1.13873.406299-2.14449.532465-2.29492.289063-.14729-.238262.22571-.753426.82813-1.144532.60242-.391105 2.71086-1.156693 4.68555-1.701172 1.97475-.544698 4.28061-.990454 5.12507-.990454.84442 0 1.88391-.348758 2.31054-.775391.42645-.42667.69593-1.020974.59766-1.320312-.0982-.299377-.73976-.609769-1.42578-.691406-.68603-.08164-3.1528.493797-5.48242 1.279297-2.32963.785461-4.61417 1.577214-5.07618 1.759765-.57316.226318-.83984.104797-.83984-.384765 0-.426558 1.2595-1.253715 3.10742-2.039063 1.70907-.726387 4.67867-1.688606 6.59961-2.138672 2.91035-.681902 3.51956-.993335 3.64844-1.865234.1446-.977008.0176-1.024831-1.91992-.728516-1.14116.174425-4.08702 1.028806-6.54493 1.898438-3.75556 1.328806-4.44333 1.45349-4.31445.785156.0898-.466243 1.49661-1.352909 3.40039-2.144531 1.78598-.742678 4.48444-1.563432 5.9961-1.824219 1.51166-.260863 3.23413-.580922 3.82812-.710938.70133-.153486 1.08008-.590736 1.08008-1.24414 0-.941216-.17258-.983245-2.67969-.669922-1.47379.184138-3.81592.723893-5.20312 1.201172-1.3872.477278-3.21938 1.228889-4.07227 1.669922-.85289.440882-1.75565.733918-2.00586.65039-.25017-.08341-.12916-.615203.26758-1.18164.42508-.606841 2.40947-1.640993 4.83203-2.517579 3.03133-1.096856 4.94196-1.486328 7.27344-1.486328 2.44849 0 3.30507-.189387 3.79883-.839843.35055-.46201.64478-1.219669.65234-1.681641.0133-.730394-.47863-.839844-3.77344-.839844zm-52.11133 11.519532c.0125-.000417.0247 0 .0371 0 .39689 0 .58711.216279.42383.480468-.16316.264189-.61964.480469-1.01562.480469-.39689 0-.58711-.21628-.42383-.480469.15806-.255933.59152-.46756.97851-.480468z" stroke-width=".48" transform="matrix(.26458333 0 0 .26458333 110.93863 94.894196)"/><path d="m186.61404 122.0722c-.0746 0-.26258-.089-.41782-.1977-.1645-.11522-.28226-.33101-.28226-.51722v-.31952l.33463.26322c.18404.14477.49408.26322.68898.26322.19489 0 .93355-.20804 1.64147-.46231.87118-.31291 1.32879-.42063 1.41608-.33333.0873.0873-.17764.25661-.81987.52397-.52186.21725-1.28112.48155-1.68724.58733-.40613.10579-.79942.19234-.87397.19234z" stroke-width=".127"/><path d="m190.47904 125.6282c-.0903 0-.10994-.13804-.0551-.38752l.0851-.38752-.48778.20855c-.26827.1147-.55921.23805-.64652.27411-.0894.0369-.15875-.0262-.15875-.1446 0-.11558.14287-.34256.3175-.5044s.3175-.33056.3175-.37494c0-.0444-.20002-.0807-.4445-.0807-.24447 0-.4445-.0483-.4445-.10732 0-.059.11175-.20845.24833-.33206.19195-.1737.35777-.20428.73025-.13467.26506.0495.76767.0958 1.11692.10273.34925.007.80645-.0305 1.016-.0833.31037-.0782.41079-.0472.54173.16726.13381.21917.1251.31763-.052.58791-.11699.17855-.60223.5208-1.07831.76055-.47607.23975-.92871.43591-1.00585.43591z" stroke-width=".127"/><path d="m197.93605 128.9302c-.0463 0-.0841-.0824-.0841-.18301 0-.10065.0571-.21832.127-.26149.0699-.0432.127-.12561.127-.18319 0-.0576-.1237-.13704-.27489-.17657-.23218-.0607-.24949-.10248-.11145-.26882.0899-.10831.24217-.19692.33839-.19692.0962 0 .17495-.0502.17495-.11145 0-.0613-.0857-.1826-.1905-.26955-.10477-.087-.1905-.20922-.1905-.27169 0-.0625.28385.0303.63078.20605.34693.1758.66125.31964.6985.31964.0373 0 .0677-.31574.0677-.70165 0-.61161.0367-.71522.28575-.80745.15716-.0582.59128-.1452.96469-.19334l.67895-.0875-.41335.57558-.41334.57557.23184.51413c.14297.31707.18655.55942.11369.63228-.065.065-.46028.15682-.87844.20408-.42882.0485-.98663.21659-1.27945.38564-.28553.16484-.557.29971-.60325.29971z" stroke-width=".127"/></g></g></svg>