<?xml version="1.0" encoding="UTF-8" standalone="no"?>
<!-- Created with Inkscape (http://www.inkscape.org/) -->

<svg
   width="31.78824mm"
   height="36.562717mm"
   viewBox="0 0 31.78824 36.562717"
   version="1.1"
   id="svg5"
   inkscape:version="1.1.2 (b8e25be833, 2022-02-05)"
   sodipodi:docname="GawanWappen.svg"
   xmlns:inkscape="http://www.inkscape.org/namespaces/inkscape"
   xmlns:sodipodi="http://sodipodi.sourceforge.net/DTD/sodipodi-0.dtd"
   xmlns="http://www.w3.org/2000/svg"
   xmlns:svg="http://www.w3.org/2000/svg">
  <sodipodi:namedview
     id="namedview7"
     pagecolor="#505050"
     bordercolor="#eeeeee"
     borderopacity="1"
     inkscape:pageshadow="0"
     inkscape:pageopacity="0"
     inkscape:pagecheckerboard="0"
     inkscape:document-units="mm"
     showgrid="false"
     fit-margin-top="0"
     fit-margin-left="0"
     fit-margin-right="0"
     fit-margin-bottom="0"
     inkscape:snap-bbox="true"
     inkscape:snap-bbox-edge-midpoints="true"
     inkscape:object-paths="true"
     inkscape:snap-others="false"
     inkscape:zoom="2.7416088"
     inkscape:cx="90.457837"
     inkscape:cy="96.658576"
     inkscape:window-width="1920"
     inkscape:window-height="1009"
     inkscape:window-x="-8"
     inkscape:window-y="-8"
     inkscape:window-maximized="1"
     inkscape:current-layer="layer1" />
  <defs
     id="defs2" />
  <g
     inkscape:label="Ebene 1"
     inkscape:groupmode="layer"
     id="layer1"
     transform="translate(-110.91951,-94.900837)">
    <g
       id="g4685"
       transform="translate(-71.043723,0.00664102)">
      <g
         id="g4595"
         transform="translate(-39.074022)">
        <ellipse
           style="fill:#ffffff;stroke:none;stroke-width:0.948778;stroke-linecap:round;stroke-linejoin:round;paint-order:stroke markers fill"
           id="ellipse4589"
           cx="236.81949"
           cy="115.48818"
           rx="15.168004"
           ry="15.530787" />
        <rect
           style="fill:#ffffff;stroke:none;stroke-width:1;stroke-linecap:round;stroke-linejoin:round;paint-order:stroke markers fill"
           id="rect4591"
           width="31.749989"
           height="20.193005"
           x="221.05638"
           y="94.894196" />
      </g>
      <path
         id="path1640"
         style="fill:#000000;stroke-width:0.48"
         d="M 272.18359,3.5996094 V 39.958984 76.320312 h 56.06836 56.07032 l -0.34961,3.958985 c -0.192,2.17799 -0.70366,5.688781 -1.13672,7.800781 -0.43302,2.112 -1.32124,5.459434 -1.97461,7.439453 -0.65337,1.979981 -2.13567,5.562339 -3.29492,7.960939 -1.1593,2.3986 -3.38155,6.07076 -4.9375,8.16015 -1.55592,2.0894 -4.50156,5.38022 -6.54493,7.3125 -2.0434,1.93233 -5.15606,4.44216 -6.91796,5.57813 -1.76194,1.13594 -4.49999,2.71378 -6.08399,3.50586 -1.584,0.79211 -4.5542,2.00025 -6.59961,2.68359 -2.04544,0.68338 -5.4026,1.56071 -7.46094,1.95118 -2.05829,0.39046 -5.89323,0.81724 -8.52148,0.94726 -2.62825,0.13039 -6.39889,0.0378 -8.37891,-0.20898 -1.97998,-0.24492 -5.2192,-0.85521 -7.19921,-1.35547 -1.97999,-0.50026 -5.34401,-1.58157 -7.47657,-2.4043 -2.13248,-0.82273 -5.77922,-2.62931 -8.10351,-4.01367 -2.35404,-1.40205 -6.09435,-4.27418 -8.44336,-6.48438 -2.31935,-2.18222 -5.29156,-5.42339 -6.60547,-7.20117 -1.31392,-1.77774 -3.15408,-4.63558 -4.08789,-6.35156 -0.93385,-1.71602 -2.37246,-4.83007 -3.19727,-6.919922 -0.8248,-2.089852 -2.01471,-5.928302 -2.64453,-8.529297 -0.62978,-2.601033 -1.27693,-6.290066 -1.43945,-8.199219 -0.16252,-1.909115 -0.3955,-3.956791 -0.51758,-4.550781 l -0.22266,-1.080079 h -1.87109 -1.87305 l 0.30664,4.294922 c 0.16781,2.363112 0.75659,6.39034 1.31055,8.947266 0.554,2.556926 1.5556,6.292744 2.22461,8.302734 0.66901,2.009991 2.18058,5.588506 3.35937,7.953126 1.17876,2.36462 3.25902,5.9172 4.62305,7.89453 1.36407,1.97737 4.21968,5.33492 6.34571,7.46094 2.12602,2.12602 5.53585,5.0188 7.57812,6.42773 2.04227,1.4089 5.5948,3.4937 7.89453,4.63282 2.29969,1.13914 6.01774,2.63957 8.26172,3.33398 2.24402,0.69445 5.69971,1.55501 7.67969,1.91406 1.98002,0.35906 6.54133,0.67484 10.13672,0.70508 3.88229,0.0302 8.2047,-0.23887 10.64257,-0.66406 2.25771,-0.39372 5.85401,-1.26853 7.99024,-1.94336 2.13623,-0.67484 5.33854,-1.87861 7.11719,-2.67578 1.77864,-0.79722 5.37543,-2.8742 7.99218,-4.61524 2.61676,-1.74104 6.43041,-4.83864 8.47657,-6.88476 2.04616,-2.04616 4.83933,-5.30511 6.20703,-7.24219 1.36766,-1.93712 3.52001,-5.57405 4.7832,-8.08203 1.26319,-2.50802 2.98143,-6.69582 3.81641,-9.306642 0.83497,-2.610785 1.93984,-7.222573 2.45703,-10.248047 0.51723,-3.025437 0.9414,-6.559784 0.9414,-7.853516 v -2.351563 h -1.80078 -1.79882 V 39.958984 3.5996094 h -56.4004 z m 42.81055,2.1601562 c 0.28509,0 0.64746,0.5943106 0.80469,1.3203125 0.15734,0.7259981 0.80599,3.4675839 1.4414,6.0917969 0.77454,3.198663 2.18636,6.893798 4.28321,11.212891 1.72029,3.54342 3.12695,7.042653 3.12695,7.77539 0,0.732737 -0.66564,2.756819 -1.48047,4.498047 -1.39181,2.974262 -1.44898,3.316141 -0.94922,5.646485 0.29258,1.364258 1.19239,3.719162 2,5.234374 0.80761,1.515251 2.0992,3.360108 2.8711,4.09961 l 1.40429,1.345703 1.62696,-1.578125 c 0.89525,-0.867742 2.34316,-3.122862 3.21679,-5.011719 1.12895,-2.440932 1.58835,-4.12817 1.58789,-5.833984 -5.6e-4,-1.744101 -0.35587,-3.003226 -1.29882,-4.603516 -0.71369,-1.211187 -1.29688,-2.82406 -1.29688,-3.585937 0,-0.76184 1.40272,-4.327658 3.11719,-7.921875 1.96441,-4.118136 3.55493,-8.292762 4.30078,-11.291016 0.65099,-2.616767 1.30339,-5.3521268 1.45117,-6.0781249 0.14755,-0.7260019 0.50213,-1.3203125 0.78711,-1.3203125 0.28505,0 1.26092,0.3527906 2.16797,0.7832032 0.90701,0.4304125 1.87127,1.1986045 2.14453,1.7089843 0.34356,0.6417298 0.33852,1.6657845 -0.0156,3.3164059 -0.28158,1.312774 -1.28375,4.450242 -2.22852,6.972657 -0.94473,2.522422 -1.61653,4.688153 -1.49219,4.8125 0.12427,0.12427 1.23818,-1.017298 2.47461,-2.535157 1.23644,-1.517858 2.74046,-3.744808 3.34375,-4.949218 0.60329,-1.204411 1.36933,-3.053375 1.70117,-4.109375 0.33196,-1.056 0.79094,-2.1239764 1.02149,-2.3730472 0.25489,-0.2755389 1.00288,0.1012612 1.91015,0.9609372 1.39801,1.324479 1.47627,1.57784 1.2461,4.052735 -0.13493,1.452 -0.72051,3.696907 -1.30078,4.988281 -0.58027,1.291389 -1.68779,3.421733 -2.46289,4.736328 -0.77515,1.314633 -1.31853,2.482254 -1.20703,2.59375 0.11149,0.111496 1.37378,-1.092386 2.80664,-2.675781 1.43289,-1.583396 3.35011,-4.190189 4.25976,-5.792969 0.90966,-1.602758 1.92358,-3.286856 2.25391,-3.742188 0.55888,-0.770721 0.66321,-0.752812 1.51758,0.253907 0.50475,0.594742 1.06127,1.91979 1.23437,2.945312 0.17348,1.025522 0.0884,2.699034 -0.1875,3.71875 -0.31956,1.180914 -1.80285,3.331602 -4.08398,5.923828 -1.96982,2.238426 -3.50711,4.145242 -3.41602,4.236329 0.0911,0.09105 0.78071,-0.162173 1.53125,-0.5625 0.75054,-0.400328 2.6037,-1.714933 4.11914,-2.919922 1.51544,-1.204989 3.56797,-3.25666 4.56055,-4.558594 0.99254,-1.301934 2.02097,-2.307383 2.28516,-2.236328 0.264,0.07094 0.79116,0.680369 1.17187,1.355468 0.57048,1.011893 0.58852,1.570087 0.10742,3.175782 -0.32999,1.101467 -1.63167,3.096804 -2.99805,4.591797 -1.32899,1.454135 -3.85054,3.666503 -5.60156,4.916015 -1.75105,1.249512 -2.94576,2.350888 -2.65625,2.447266 0.28936,0.09645 1.88192,-0.177501 3.54102,-0.607422 1.6591,-0.429921 3.86245,-1.211755 4.89453,-1.738281 1.03207,-0.526526 2.7966,-1.806497 3.92187,-2.84375 1.12528,-1.037216 2.21104,-1.884766 2.41211,-1.884766 0.20107,0 0.26668,1.18296 0.14649,2.630859 -0.1386,1.671534 -0.55379,3.008327 -1.13867,3.66211 -0.50661,0.566324 -1.72795,1.542117 -2.71289,2.167969 -0.98491,0.625852 -2.60454,1.450941 -3.59961,1.832031 -0.99508,0.38109 -3.41712,1.157177 -5.38282,1.726562 -2.3546,0.682054 -3.33807,1.162407 -2.88086,1.404297 0.3817,0.202129 1.6324,0.509358 2.7793,0.683594 1.1469,0.174539 3.41104,0.07687 5.03125,-0.216797 1.62021,-0.293783 4.20401,-1.043742 5.74024,-1.667969 2.22916,-0.905763 2.84303,-1.003505 3.04296,-0.482421 0.13781,0.359092 -0.0807,1.293721 -0.48632,2.078124 -0.40562,0.784366 -1.40125,1.984718 -2.21094,2.666016 -0.80969,0.681298 -2.27409,1.468803 -3.25586,1.75 -0.98181,0.281159 -4.34655,0.645823 -7.47656,0.8125 -5.06011,0.269556 -5.56613,0.374074 -4.56055,0.939453 0.62203,0.34972 2.50383,1.072934 4.18164,1.605469 2.05376,0.651969 4.36729,0.966797 7.08008,0.966797 2.21616,0 4.0293,0.175948 4.0293,0.390625 0,0.214601 -0.59431,0.958901 -1.32032,1.654297 -0.72601,0.695395 -2.12201,1.599762 -3.10351,2.009765 -0.98155,0.410004 -2.81761,0.731915 -4.08008,0.716797 -1.26248,-0.01568 -4.23924,-0.639468 -6.61523,-1.386719 -2.37601,-0.747288 -4.40621,-1.280349 -4.50977,-1.183593 -0.1036,0.0966 0.0846,0.504448 0.41797,0.90625 0.33347,0.401801 1.87336,1.577287 3.42187,2.611328 1.68919,1.128038 4.16899,2.22748 6.19727,2.75 2.48028,0.638929 3.34354,1.065928 3.24414,1.601562 -0.0745,0.401537 -0.88928,1.121386 -1.8125,1.59961 -1.21773,0.630727 -2.35272,0.807365 -4.12891,0.642578 -1.49998,-0.139314 -3.82424,-0.917898 -6,-2.009766 -1.95333,-0.980296 -4.15723,-2.210721 -4.89843,-2.734375 -0.74121,-0.523653 -1.47231,-0.826899 -1.625,-0.673828 -0.15292,0.152882 0.93626,1.778951 2.41992,3.615234 1.48365,1.836284 3.67279,4.04012 4.86523,4.896485 1.19248,0.856365 2.16797,1.713431 2.16797,1.904297 0,0.190979 -0.34217,0.47842 -0.75976,0.638672 -0.41757,0.160252 -1.56236,0.291015 -2.54493,0.291015 -0.98256,0 -2.89739,-0.552547 -4.2539,-1.228515 -1.43505,-0.715087 -3.71623,-2.564943 -5.45508,-4.423828 -2.97252,-3.177412 -2.98684,-3.186079 -2.67578,-1.53125 0.17204,0.915174 1.15294,3.32958 2.17969,5.365234 1.0267,2.035653 1.74991,3.816496 1.60742,3.958984 -0.14238,0.142488 -1.37711,0.259766 -2.7461,0.259766 -1.79406,0 -2.94199,-0.305088 -4.10937,-1.091797 -0.89076,-0.600265 -2.09658,-1.798777 -2.67969,-2.664063 -0.58314,-0.865285 -1.63121,-3.29024 -2.33008,-5.388671 -0.69883,-2.098394 -1.45115,-3.814453 -1.67187,-3.814453 -0.22065,0 -0.97304,1.716059 -1.67188,3.814453 -0.69887,2.098431 -1.74889,4.523386 -2.33203,5.388671 -0.5831,0.865286 -1.78893,2.063798 -2.67969,2.664063 -1.18348,0.797405 -2.3102,1.091797 -4.1875,1.091797 -1.56313,0 -2.57031,-0.20892 -2.57031,-0.533203 0,-0.293178 0.75586,-2.074172 1.67969,-3.958985 0.92383,-1.884812 1.81814,-4.14113 1.98633,-5.013672 0.2985,-1.54953 0.23503,-1.515008 -2.70703,1.548829 -1.65668,1.725241 -4.10438,3.682346 -5.43946,4.347656 -1.41033,0.702803 -3.24255,1.204951 -4.37304,1.201172 -1.07014,-0.004 -2.27,-0.22863 -2.66602,-0.5 -0.61115,-0.419188 -0.54023,-0.617407 0.46875,-1.3125 0.65374,-0.450369 1.90948,-1.448268 2.79102,-2.216797 0.88157,-0.768529 2.58463,-2.670897 3.7832,-4.228516 1.19852,-1.557581 2.06077,-2.950947 1.91601,-3.095703 -0.14464,-0.144642 -0.88235,0.178214 -1.63867,0.716797 -0.75636,0.538583 -2.95698,1.771756 -4.89062,2.742188 -2.37547,1.192138 -4.39075,1.836217 -6.21289,1.984374 -2.16322,0.175749 -3.01142,0.02075 -4.29102,-0.785156 -0.87734,-0.552567 -1.51705,-1.243754 -1.41992,-1.535156 0.0971,-0.291364 1.90461,-1.09441 4.01562,-1.785156 2.12414,-0.695055 4.92682,-2.057862 6.27539,-3.050782 1.34026,-0.986834 2.73451,-2.160782 3.09961,-2.609374 0.58576,-0.719925 0.56101,-0.776596 -0.21289,-0.486329 -0.48226,0.180926 -2.74123,0.868787 -5.01953,1.529297 -2.27833,0.66051 -5.07684,1.201172 -6.21875,1.201172 -1.14187,0 -2.87982,-0.33609 -3.86133,-0.746094 -0.9815,-0.410003 -2.3775,-1.31437 -3.10351,-2.009765 -0.72601,-0.695396 -1.32031,-1.43962 -1.32031,-1.654297 0,-0.214828 1.81313,-0.390625 4.02929,-0.390625 2.7128,0 5.02632,-0.316857 7.08008,-0.96875 1.67781,-0.532536 3.55961,-1.253909 4.18164,-1.603516 1.00558,-0.565228 0.49956,-0.669973 -4.56054,-0.939453 -3.13002,-0.166715 -6.49281,-0.533256 -7.47461,-0.814453 -0.98177,-0.281121 -2.47058,-1.085541 -3.30665,-1.789063 -0.8361,-0.703559 -1.82094,-2.000897 -2.18945,-2.882812 -0.36862,-0.881953 -0.55182,-1.794903 -0.4082,-2.027344 0.1437,-0.232516 1.50388,0.08371 3.02344,0.701172 1.51959,0.617462 4.08877,1.362581 5.70898,1.65625 1.62021,0.293669 3.88435,0.391033 5.03125,0.216797 1.1469,-0.174387 2.37721,-0.471936 2.73438,-0.660156 0.38891,-0.205115 -1.57864,-1.063056 -4.90625,-2.138672 -3.05617,-0.987893 -6.41908,-2.420394 -7.47266,-3.183594 -1.05358,-0.7632 -2.24688,-2.028399 -2.65234,-2.8125 -0.4054,-0.784101 -0.73829,-2.300026 -0.73829,-3.369141 0,-1.069114 0.13808,-1.945312 0.30664,-1.945312 0.16846,0 1.26312,0.883987 2.4336,1.962891 1.17048,1.078904 3.24622,2.451348 4.61328,3.050781 1.36706,0.599471 3.63293,1.361895 5.0332,1.693359 1.40024,0.330709 2.65773,0.490713 2.79492,0.353516 0.13709,-0.137084 -1.33423,-1.422499 -3.26757,-2.855469 -1.93331,-1.433008 -4.3457,-3.529372 -5.36133,-4.658203 -1.01567,-1.128831 -2.14914,-2.777688 -2.51953,-3.664063 -0.37025,-0.886374 -0.67383,-2.025952 -0.67383,-2.533203 0,-0.507212 0.42127,-1.431443 0.93555,-2.054687 l 0.93554,-1.134766 0.82032,1.201172 c 0.45172,0.659981 1.95458,2.316022 3.33789,3.681641 1.38327,1.365581 3.72826,3.288984 5.21093,4.273437 1.48267,0.984416 2.79552,1.690816 2.91797,1.56836 0.1225,-0.122457 -1.03144,-1.636302 -2.56445,-3.363282 -1.53301,-1.726979 -3.29237,-3.848021 -3.9082,-4.71289 -0.84042,-1.180082 -1.1298,-2.253653 -1.15625,-4.300782 -0.0251,-1.847005 0.23629,-3.144148 0.80859,-4.017578 0.46484,-0.709455 1.05222,-1.289062 1.30469,-1.289062 0.25255,0 0.92079,0.91706 1.48633,2.039062 0.56553,1.121998 1.95383,3.335892 3.08398,4.919922 1.13015,1.584 2.85836,3.636528 3.8418,4.560547 0.98343,0.924095 1.69945,1.465361 1.58984,1.201172 -0.10968,-0.264 -1.25489,-2.604271 -2.54492,-5.199219 -1.62403,-3.26674 -2.40861,-5.480781 -2.54883,-7.199218 -0.17397,-2.133563 -0.0442,-2.629824 0.92383,-3.527344 0.61931,-0.574231 1.40556,-1.1134615 1.74609,-1.199219 0.38079,-0.095856 1.1378,1.164274 1.9668,3.269531 0.74169,1.883694 1.85564,4.150757 2.47461,5.039063 0.61897,0.88831 1.86945,2.53925 2.7793,3.667969 0.90988,1.128718 1.74876,1.958269 1.86328,1.84375 0.11474,-0.114747 -0.55541,-2.250249 -1.49024,-4.746094 -0.93479,-2.495845 -1.92199,-5.530717 -2.19336,-6.742188 -0.30652,-1.366507 -0.32763,-2.6384826 -0.0566,-3.3515622 0.24034,-0.6321789 1.18952,-1.5068731 2.10938,-1.9433594 0.91982,-0.4364825 1.90447,-0.7929688 2.18945,-0.7929688 z"
         transform="matrix(0.26458333,0,0,0.26458333,110.93863,94.894196)" />
      <path
         id="path1648"
         style="fill:#fe0000;fill-opacity:1;stroke-width:0.48"
         d="m 351.10156,80.160156 c -2.50204,0 -4.90745,0.344986 -7.08008,1.015625 -1.80982,0.558614 -4.91146,1.830531 -6.89257,2.826172 -1.98108,0.995679 -6.62541,3.812786 -10.32032,6.259766 -3.6949,2.446941 -8.01365,5.063952 -9.59765,5.814453 -1.584,0.750501 -3.31185,1.348849 -3.83985,1.326172 -0.58193,-0.02332 -0.0617,-0.424823 1.32032,-1.019532 1.25401,-0.539603 2.27929,-1.147404 2.27929,-1.349609 0,-0.202394 -0.80882,-0.694594 -1.79882,-1.09375 -0.99001,-0.399118 -3.85331,-1.949035 -6.36133,-3.445312 -4.19834,-2.504769 -4.72986,-2.699612 -6.69922,-2.44336 -1.17642,0.153147 -4.19917,1.226971 -6.71875,2.386719 -2.51955,1.159748 -5.39909,2.366365 -6.39844,2.679688 -0.99934,0.313398 -2.15202,1.079616 -2.56055,1.703124 -0.45248,0.689802 -0.61362,1.538905 -0.41406,2.167969 0.2778,0.875074 0.5601,0.983566 1.83985,0.703125 0.83142,-0.182097 2.91683,-0.493295 4.63281,-0.689453 1.71602,-0.196535 4.05367,-0.260941 5.19531,-0.144531 1.28001,0.130431 2.18363,0.495689 2.35938,0.953125 0.17461,0.455055 -0.20639,1.165033 -0.98633,1.835937 -0.69933,0.601516 -3.1343,1.800766 -5.41211,2.666016 -3.87069,1.47027 -4.05678,1.60217 -2.82813,2.01172 0.85826,0.28618 2.41746,0.22749 4.49219,-0.16992 1.74788,-0.33479 4.54136,-0.7063 6.20703,-0.82422 l 3.0293,-0.21289 4.00781,4.24219 c 2.20407,2.33321 4.66517,4.62706 5.4707,5.09765 l 1.46485,0.85547 0.99414,-1.81641 c 0.67302,-1.23167 0.89733,-1.4293 0.68945,-0.61523 -0.16864,0.65998 -0.69719,2.10183 -1.17383,3.20508 -0.53359,1.23518 -1.42517,2.29489 -2.32031,2.75781 -0.79956,0.41344 -2.2967,0.72013 -3.32617,0.67969 -1.02947,-0.0404 -2.15216,0.10009 -2.49609,0.3125 -0.45585,0.28176 -0.25807,0.57775 0.73046,1.0957 l 1.35547,0.71094 -1.40625,0.7793 -1.4082,0.77929 1.67969,0.1543 c 0.92402,0.0848 1.86011,0.32867 2.08007,0.54297 0.21986,0.21426 -0.19446,0.94074 -0.92187,1.61523 l -1.32227,1.22656 1.28516,0.32422 c 0.85678,0.21502 1.70177,0.0501 2.5293,-0.49218 0.68337,-0.44777 1.60038,-1.47385 2.03711,-2.2793 0.43672,-0.80542 1.2259,-1.98637 1.7539,-2.625 0.528,-0.63867 2.0377,-1.74385 3.35547,-2.45508 2.04684,-1.10479 2.5513,-1.67628 3.46485,-3.93164 0.68258,-1.68518 1.07642,-2.24417 1.08398,-1.54492 0.008,0.60245 -0.29065,1.82669 -0.66406,2.7207 -0.37357,0.89397 -0.55384,1.75085 -0.40039,1.9043 0.15356,0.15382 2.35564,0.27929 4.89258,0.27929 2.53693,0 6.44262,-0.22403 8.67968,-0.49804 2.23707,-0.27409 4.41823,-0.60512 4.84766,-0.73438 0.46129,-0.13893 0.89828,-0.97047 1.06836,-2.0332 0.15821,-0.98944 0.63472,-2.22497 1.05859,-2.74609 0.76581,-0.94281 0.76979,-0.9443 0.43945,0.01 -0.18274,0.528 -0.44029,1.82796 -0.57031,2.88672 -0.19948,1.62418 -0.0331,2.12705 1.05664,3.2168 0.71037,0.71036 2.08199,1.54807 3.04883,1.86328 0.9668,0.31506 1.90446,0.80071 2.08399,1.07812 0.17952,0.27753 0.10945,0.9115 -0.15625,1.40821 -0.28381,0.5303 -0.78155,0.78752 -1.20508,0.625 -0.39674,-0.15194 -1.24381,-0.14463 -1.88282,0.0156 -0.63904,0.16037 -1.1621,0.48329 -1.1621,0.71875 0,0.23524 0.43293,0.42774 0.96093,0.42774 0.528,0 0.95899,0.22396 0.95899,0.49609 0,0.27228 -0.32472,0.61955 -0.72071,0.77148 -0.39609,0.15198 -0.71875,0.4664 -0.71875,0.69922 0,0.23282 0.48609,0.37134 1.08008,0.3086 0.86136,-0.0912 1.05593,0.10356 0.96485,0.96484 -0.0627,0.59399 0.004,1.08008 0.14843,1.08008 0.15097,-0.006 1.81353,-1.30785 3.70313,-2.89844 1.89411,-1.59435 3.61811,-3.20969 3.83203,-3.5918 0.21392,-0.38214 0.17277,-1.09961 -0.0918,-1.59375 -0.26445,-0.49409 -1.0285,-1.25778 -1.69922,-1.69726 -1.00142,-0.65613 -1.2207,-1.17858 -1.2207,-2.91992 0,-1.16633 0.23418,-2.26491 0.51953,-2.44141 0.30981,-0.19151 0.4821,0.0395 0.42578,0.57227 -0.0503,0.49088 -0.0693,1.18996 -0.0391,1.55468 0.0413,0.49524 0.55542,0.59649 2.03125,0.39844 1.08703,-0.14581 3.37269,-0.95143 5.07813,-1.79101 1.76216,-0.86752 4.32782,-2.72983 5.94531,-4.3125 1.8912,-1.85054 3.34912,-3.86063 4.3457,-5.99024 1.31225,-2.804597 1.46783,-3.558735 1.24219,-6.046874 -0.17178,-1.89445 -0.729,-3.685435 -1.67188,-5.363281 -0.78822,-1.402658 -2.302,-3.145815 -3.41601,-3.935547 -1.59424,-1.130154 -2.63035,-1.45725 -5.10938,-1.615234 -1.84713,-0.117392 -3.11132,-0.0082 -3.11132,0.271484 0,0.258898 0.95962,0.837887 2.13086,1.285156 1.17119,0.447307 2.88528,1.651605 3.81054,2.675782 0.92527,1.024176 1.94021,2.718695 2.25391,3.765625 0.31975,1.067074 0.42631,2.665002 0.24414,3.636718 -0.19147,1.020586 -0.98793,2.396135 -1.9375,3.345701 -0.88702,0.88702 -2.65919,1.97859 -3.9375,2.42578 -1.27828,0.4472 -4.38967,0.93627 -6.91602,1.08594 -3.29333,0.1951 -5.95032,0.0326 -9.38281,-0.57031 l -4.78711,-0.83984 -3.33789,1.69531 c -1.83651,0.93316 -3.76378,2.01624 -4.2832,2.40625 -0.86963,0.65299 -1.16559,0.53738 -3.72656,-1.47461 -1.98766,-1.56159 -3.84113,-2.49951 -6.4961,-3.28516 -3.07427,-0.90958 -3.41954,-1.10232 -2.00195,-1.125 0.94208,-0.0141 2.81234,0.30071 4.15429,0.69922 1.34196,0.39851 3.54049,1.48214 4.88672,2.4082 l 2.44727,1.6836 4.91992,-2.38477 c 2.78075,-1.34789 6.3663,-2.66949 8.24805,-3.04101 2.00474,-0.395985 3.52885,-0.973708 3.83008,-1.451176 0.33713,-0.531893 0.34343,-0.951485 0.0195,-1.27539 -0.32402,-0.323981 -1.74387,-0.180377 -4.31055,0.4375 -2.1044,0.506608 -4.73837,1.246887 -5.85352,1.644531 -1.13873,0.406299 -2.14449,0.532465 -2.29492,0.289063 -0.14729,-0.238262 0.22571,-0.753426 0.82813,-1.144532 0.60242,-0.391105 2.71086,-1.156693 4.68555,-1.701172 C 343.89656,96.445756 346.20242,96 347.04688,96 c 0.84442,0 1.88391,-0.348758 2.31054,-0.775391 0.42645,-0.42667 0.69593,-1.020974 0.59766,-1.320312 -0.0982,-0.299377 -0.73976,-0.609769 -1.42578,-0.691406 -0.68603,-0.08164 -3.1528,0.493797 -5.48242,1.279297 -2.32963,0.785461 -4.61417,1.577214 -5.07618,1.759765 -0.57316,0.226318 -0.83984,0.104797 -0.83984,-0.384765 0,-0.426558 1.2595,-1.253715 3.10742,-2.039063 1.70907,-0.726387 4.67867,-1.688606 6.59961,-2.138672 2.91035,-0.681902 3.51956,-0.993335 3.64844,-1.865234 0.1446,-0.977008 0.0176,-1.024831 -1.91992,-0.728516 -1.14116,0.174425 -4.08702,1.028806 -6.54493,1.898438 -3.75556,1.328806 -4.44333,1.45349 -4.31445,0.785156 0.0898,-0.466243 1.49661,-1.352909 3.40039,-2.144531 1.78598,-0.742678 4.48444,-1.563432 5.9961,-1.824219 1.51166,-0.260863 3.23413,-0.580922 3.82812,-0.710938 0.70133,-0.153486 1.08008,-0.590736 1.08008,-1.24414 0,-0.941216 -0.17258,-0.983245 -2.67969,-0.669922 -1.47379,0.184138 -3.81592,0.723893 -5.20312,1.201172 -1.3872,0.477278 -3.21938,1.228889 -4.07227,1.669922 -0.85289,0.440882 -1.75565,0.733918 -2.00586,0.65039 -0.25017,-0.08341 -0.12916,-0.615203 0.26758,-1.18164 0.42508,-0.606841 2.40947,-1.640993 4.83203,-2.517579 3.03133,-1.096856 4.94196,-1.486328 7.27344,-1.486328 2.44849,0 3.30507,-0.189387 3.79883,-0.839843 0.35055,-0.46201 0.64478,-1.219669 0.65234,-1.681641 0.0133,-0.730394 -0.47863,-0.839844 -3.77344,-0.839844 z m -52.11133,11.519532 c 0.0125,-4.17e-4 0.0247,0 0.0371,0 0.39689,0 0.58711,0.216279 0.42383,0.480468 -0.16316,0.264189 -0.61964,0.480469 -1.01562,0.480469 -0.39689,0 -0.58711,-0.21628 -0.42383,-0.480469 0.15806,-0.255933 0.59152,-0.46756 0.97851,-0.480468 z"
         transform="matrix(0.26458333,0,0,0.26458333,110.93863,94.894196)" />
      <path
         style="fill:#fe0000;fill-opacity:1;stroke-width:0.127"
         d="m 186.61404,122.0722 c -0.0746,0 -0.26258,-0.089 -0.41782,-0.1977 -0.1645,-0.11522 -0.28226,-0.33101 -0.28226,-0.51722 v -0.31952 l 0.33463,0.26322 c 0.18404,0.14477 0.49408,0.26322 0.68898,0.26322 0.19489,0 0.93355,-0.20804 1.64147,-0.46231 0.87118,-0.31291 1.32879,-0.42063 1.41608,-0.33333 0.0873,0.0873 -0.17764,0.25661 -0.81987,0.52397 -0.52186,0.21725 -1.28112,0.48155 -1.68724,0.58733 -0.40613,0.10579 -0.79942,0.19234 -0.87397,0.19234 z"
         id="path1654" />
      <path
         style="fill:#fe0000;fill-opacity:1;stroke-width:0.127"
         d="m 190.47904,125.6282 c -0.0903,0 -0.10994,-0.13804 -0.0551,-0.38752 l 0.0851,-0.38752 -0.48778,0.20855 c -0.26827,0.1147 -0.55921,0.23805 -0.64652,0.27411 -0.0894,0.0369 -0.15875,-0.0262 -0.15875,-0.1446 0,-0.11558 0.14287,-0.34256 0.3175,-0.5044 0.17463,-0.16184 0.3175,-0.33056 0.3175,-0.37494 0,-0.0444 -0.20002,-0.0807 -0.4445,-0.0807 -0.24447,0 -0.4445,-0.0483 -0.4445,-0.10732 0,-0.059 0.11175,-0.20845 0.24833,-0.33206 0.19195,-0.1737 0.35777,-0.20428 0.73025,-0.13467 0.26506,0.0495 0.76767,0.0958 1.11692,0.10273 0.34925,0.007 0.80645,-0.0305 1.016,-0.0833 0.31037,-0.0782 0.41079,-0.0472 0.54173,0.16726 0.13381,0.21917 0.1251,0.31763 -0.052,0.58791 -0.11699,0.17855 -0.60223,0.5208 -1.07831,0.76055 -0.47607,0.23975 -0.92871,0.43591 -1.00585,0.43591 z"
         id="path1652" />
      <path
         style="fill:#fe0000;fill-opacity:1;stroke-width:0.127"
         d="m 197.93605,128.9302 c -0.0463,0 -0.0841,-0.0824 -0.0841,-0.18301 0,-0.10065 0.0571,-0.21832 0.127,-0.26149 0.0699,-0.0432 0.127,-0.12561 0.127,-0.18319 0,-0.0576 -0.1237,-0.13704 -0.27489,-0.17657 -0.23218,-0.0607 -0.24949,-0.10248 -0.11145,-0.26882 0.0899,-0.10831 0.24217,-0.19692 0.33839,-0.19692 0.0962,0 0.17495,-0.0502 0.17495,-0.11145 0,-0.0613 -0.0857,-0.1826 -0.1905,-0.26955 -0.10477,-0.087 -0.1905,-0.20922 -0.1905,-0.27169 0,-0.0625 0.28385,0.0303 0.63078,0.20605 0.34693,0.1758 0.66125,0.31964 0.6985,0.31964 0.0373,0 0.0677,-0.31574 0.0677,-0.70165 0,-0.61161 0.0367,-0.71522 0.28575,-0.80745 0.15716,-0.0582 0.59128,-0.1452 0.96469,-0.19334 l 0.67895,-0.0875 -0.41335,0.57558 -0.41334,0.57557 0.23184,0.51413 c 0.14297,0.31707 0.18655,0.55942 0.11369,0.63228 -0.065,0.065 -0.46028,0.15682 -0.87844,0.20408 -0.42882,0.0485 -0.98663,0.21659 -1.27945,0.38564 -0.28553,0.16484 -0.557,0.29971 -0.60325,0.29971 z"
         id="path1646" />
    </g>
  </g>
</svg>
