<svg fill="none" height="600" viewBox="0 0 480 600" width="480" xmlns="http://www.w3.org/2000/svg"><path d="m12.0154 12h455.9846v347.381l-.015 1.897c-.962 125.403-102.693 226.722-227.988 226.722-125.895 0-227.997-102.287-227.997-228.519l.008-180.09.0054-123.3528.0018-40.6295z" fill="#b42f2f" stroke="#ffd000" stroke-width="24"/><g fill="#ffd000"><path clip-rule="evenodd" d="m299.659 310.244c14.146-16.716 57.81-86.352 57.81-114.069l-62.646-2.815c0 36.728-34.344 77.15-66.396 91.679-34.486 15.632-59.751 39.326-60.187 79.9-.476 44.271 30.488 83.168 72.26 109.061 31 19.216 57.5 50.5 94 57.5l23-50c-39.5-12-29-10.5-78.5-47-32.485-23.953-54.925-46.609-56-63-.949-14.469 20.399-25.32 31.688-30.553 16.683-7.734 32.887-16.423 44.971-30.703z" fill-rule="evenodd" stroke="#000" stroke-width="6"/><path d="m194 433.5c-29.486 18.5-19.5 30.5-70 60.076l25 49.924c52.5-26.5 67-58 87-71.5-17.5-14-26.5-21-42-38.5z" stroke="#000" stroke-width="6"/><path d="m133.634 182.098c-4.928 55.607 18.3 107.694 47.549 128.962 3.901 2.836 10.459 6.526 18.034 10.788 23.536 13.242 76.781 45.062 35.783 73.152 16.5 18.5 24.5 23 41 37 60.5-53 23.66-116.38-37.675-153.313-4.036-2.43-8.001-4.818-11.825-7.187-29.787-18.455-28.777-53.33-28.232-72.183.065-2.227.123-4.231.123-5.957 0 0-59.83-66.869-64.757-11.262z" stroke="#000" stroke-width="6"/><path d="m455.5 425.069c-227.5 152.686-254.5-3.814-438.5 0l78.5 116.431 126.5 47.255 121.5-21.755 83-74.745z" stroke="#000" stroke-width="5"/><path d="m269.822 69.3296c-12.019 0-23.441 2.0723-33.754 5.8006-13.777-8.2522-30.813-13.1302-49.252-13.1302-45.679 0-82.739 29.9324-83.006 66.938-26.0298 1.229-46.7521 22.474-46.7521 48.503 0 7.756 1.84 15.087 5.1121 21.59-5.1408 6.773-8.17 15.09-8.17 24.08 0 22.749 19.3958 41.19 43.3218 41.19 2.3256 0 4.6082-.174 6.8342-.509 7.779 11 20.989 18.237 35.978 18.237 18.983 0 35.115-11.609 40.97-27.768 6.412 1.289 13.119 1.972 20.023 1.972 12.25 0 23.88-2.153 34.348-6.017 10.467 3.864 22.097 6.017 34.347 6.017 7.963 0 15.663-.909 22.952-2.607 2.331 20.658 20.726 36.746 43.073 36.746 16.313 0 30.519-8.573 37.909-21.238 1.936.251 3.913.381 5.922.381 23.926 0 43.322-18.441 43.322-41.19 0-10.507-4.138-20.096-10.949-27.373 1.81-5.061 2.795-10.508 2.795-16.182 0-12.621-4.873-24.117-12.86-32.752.301-2.172.456-4.39.456-6.644 0-26.818-21.999-48.5586-49.136-48.5586-5.105 0-10.029.7695-14.658 2.1976-14.918-17.9091-40.177-29.6834-68.826-29.6834z"/></g><path clip-rule="evenodd" d="m292.774 253.626c2.331 20.658 20.726 36.746 43.073 36.746 16.313 0 30.519-8.573 37.909-21.238 1.936.251 3.913.381 5.922.381 23.926 0 43.322-18.441 43.322-41.19 0-10.507-4.138-20.096-10.949-27.373 1.81-5.061 2.795-10.508 2.795-16.182 0-12.621-4.873-24.117-12.86-32.752.301-2.172.456-4.39.456-6.644 0-26.818-21.999-48.5586-49.136-48.5586-5.105 0-10.029.7695-14.658 2.1976-14.918-17.9091-40.177-29.6834-68.826-29.6834-12.019 0-23.441 2.0723-33.754 5.8006-13.777-8.2522-30.813-13.1302-49.252-13.1302-45.679 0-82.739 29.9324-83.006 66.938-26.0298 1.229-46.7521 22.474-46.7521 48.503 0 7.756 1.84 15.087 5.1121 21.59-5.1408 6.773-8.17 15.09-8.17 24.08 0 22.749 19.3958 41.19 43.3218 41.19 2.3256 0 4.6082-.174 6.8342-.509 7.779 11 20.989 18.237 35.978 18.237 18.983 0 35.115-11.609 40.97-27.768 6.412 1.289 13.119 1.972 20.023 1.972 12.25 0 23.88-2.153 34.348-6.017 10.467 3.864 22.097 6.017 34.347 6.017 7.963 0 15.663-.909 22.952-2.607zm-40.451-156.4374c-13.366-17.2694-37.243-29.1886-65.507-29.1886-43.764 0-77.007 28.5746-77.007 61.34 0 2.294.163 4.567.481 6.811-1.927.878-3.802 1.86-5.618 2.939-.245-1.373-.439-2.76-.581-4.158-22.907 1.083-41.0331 19.763-41.0331 42.509 0 5.926 1.2305 11.577 3.4556 16.712 2.3384-2.249 4.9473-4.243 7.7764-5.935-.1917 2.067-.2899 4.162-.2899 6.282 0 .376.0031.751.0092 1.125-8.5835 6.496-14.0092 16.476-14.0092 27.486 0 19.154 16.4207 35.19 37.3218 35.19 6.1342 0 11.8812-1.381 16.9422-3.816 2.593.955 5.267 1.728 8.009 2.303-3.539 2.375-7.47 4.258-11.682 5.545 6.778 8.287 17.405 13.696 29.543 13.696 16.305 0 29.884-9.76 35.067-23.145-3.738-.997-7.359-2.202-10.842-3.601 2.038-1.267 3.999-2.659 5.874-4.165 9.375 3.278 19.796 5.115 30.894 5.115 9.21 0 17.954-1.265 26.02-3.569-6.567-3.2-12.544-7.116-17.767-11.615 4.392 1.022 8.915 1.858 13.548 2.494 12.83 7.903 28.981 12.69 46.894 12.69 11.804 0 22.842-2.078 32.669-5.757 1.332 1.658 2.755 3.241 4.262 4.742-2.625 1.06-5.329 2.01-8.104 2.844 1.548 17.854 17.354 32.31 37.198 32.31 16.379 0 30.006-9.848 35.136-23.327 2.568-1.14 5.035-2.461 7.386-3.947-.443 2.163-1.064 4.266-1.848 6.294 1.04.082 2.093.123 3.157.123 20.901 0 37.322-16.037 37.322-35.19 0-7.939-2.821-15.342-7.613-21.29-1.33 2.543-2.881 4.956-4.627 7.212.159-1.728.24-3.478.24-5.247 0-2.02-.106-4.016-.313-5.981 2.667-5.536 4.159-11.725 4.159-18.249 0-9.485-3.153-18.264-8.49-25.354-1.626 5.33-4.155 10.274-7.411 14.658-1.268-1.619-2.622-3.168-4.055-4.641 4.767-6.851 7.552-15.143 7.552-24.059 0-23.438-19.245-42.559-43.136-42.559-13.315 0-25.187 5.94-33.089 15.255-1.652-1.113-3.36-2.191-5.119-3.23 4.703-5.741 10.704-10.4 17.562-13.543-13.744-15.5129-36.367-25.9674-62.838-25.9674-9.751 0-18.981 1.4188-27.436 3.9867 7.162 5.2401 13.194 11.4784 17.762 18.4446-2.58-.2531-5.189-.4447-7.825-.5723z" fill="#000" fill-rule="evenodd"/><path d="m12.0154 12h455.9846v347.381l-.015 1.897c-.962 125.403-102.693 226.722-227.988 226.722-125.895 0-227.997-102.287-227.997-228.519l.008-180.09.0054-123.3528.0018-40.6295z" stroke="#ffd000" stroke-width="24"/><path d="m459 21v338.344l-.014 1.865c-.925 120.482-98.66 217.791-218.989 217.791-120.906 0-218.997-98.239-218.997-219.519l.015-338.481zm-434.9852 3h431.9852v335.333l-.014 1.853c-.912 118.841-97.315 214.814-215.989 214.814-119.243 0-215.997-96.89-215.997-216.519z" stroke="#000"/></svg>