<svg height="800" viewBox="0 0 645.67 800" width="645.67" xmlns="http://www.w3.org/2000/svg" xmlns:xlink="http://www.w3.org/1999/xlink"><clipPath id="a"><path d="m26.13 24.88h594.33v452.77l-.02 2.47c-1.25 163.45-133.85 295.51-297.16 295.51s-297.17-133.32-297.17-297.85v-234.73s.02-160.78.02-160.78v-52.95s0-4.44 0-4.44z"/></clipPath><path d="m322.81 24.88h297.17v454.71h-297.17z" fill="#bb1f11" stroke="#000" stroke-width="3"/><path d="m501.19 137.99-3.84 3.76c-4.39 5.24-17.46 4.54-22.17 1.46-2.79-2.36-.75-1.19-4.64-3.3l-11.07-3.84c-4.27-.95-9.66 2.33-15.2.24-3.62-3.45-5.24-6.24-5.12-10.71 2.38-2.23 5.92-.78 8.01-1.87 1.77-.15 2.62-2.23 2.77-3.52.34-1.36-.51-2.23-1.07-3.23-3.79-1.67-8.52-.05-12.48-.78-2.02-.27-2.21-2.48-2.62-3.4-.29-3.5 4.95-5.22 6.8-7.92 5.92-10.73 21.9-5.34 32.46-9.03 9.01-1.63 16.83-6.82 29.72-7.84l.17 8.18-.17-8.18c0-12.26.17-13.79.17-13.79s2.94 2.96 5.9 8.11l7.62 16.46-5.41-12.34 2.62-.75-1.02-11.7 4.71 3.64c2.84 2.21 4.98 4.42 6.6 7.21 5.34 1.04 11.63-.41 18.87 1.36 2.6 1.89-10.93 4.76-7.6 9.49 3.57-2.14 21.93-3.52 19.69-1.41-4.49 4.27-9.71 4.27-8.3 8.06l6.94 3.21c3.23 3.08 6.48 8.4 6.12 12.7-3.03-1.29-11.14-8.93-10.73-2.06-1.07 3.03 2.19 3.93 3.23 7.38 3.23 5.44-2.28 9.32-2.94 13.86 1.38 4.61 7.36 3.86 11.17 3.38l-3.01 5.71c-1.29 4.47-6.58 5.54-9.37 7.09-2.28 4.03-2.35 10.46-1.63 16.41l-3.93-1.34c-2.87-.73-3.5-3.13-6.29-3.91l-2.38-2.36c-1.38 4.35 1.43 11.63 4.05 15.2l-2.45 1.07c-3.01 2.02-7.07-.36-11.1-1.31-.46 5.46 3.04 8.74 6.34 12.07l-3.25 1.46c-3.96 2.31-7.7 1.6-11.58 2.11-5.34.1-9.32 5.49-11.24 9.93-2.11 5.78-.56 12.75 3.11 18.19 6.8 8.11 14.42 17.07 23.09 24.3 2.36 1.26 19.81 16.24 21.56 23.94.73 2.06 1.8 5.22 2.16 5.85 3.21-1.09 10.66-1.7 10-6.63-.29-6.65-7.36-11.78-12.16-17.41-13.43-14.01-28.75-27.73-22.17-46.18 6.9-17.55 26.88-32.49 41.88-46.18 1.89-2.82 2.84-4.01 4.73-5.68l-.24 4.52c.24 5.46.73 9.27-4.66 15.78-.46 2.09-2.94 4.06-1.58 7.19 1.77 4.13 5.17 1.19 6.19.58l3.4-4.25v2.5c.15 4.13-3.35 7.16-6.77 14.47-2.38 5.54 2.96 11.31-1.85 15.54-2.26 2.74-7.16 4.61-7.07 8.47.56 1.38 1.46 3.79 3.45 4.1 3.69 2.67 5.61-2.94 8.69-3.04 3.3 11.53-6.77 17.31-6.77 26.32-.27 8.09 4.73 13.18 6.02 21.41 1.89 6.07-2.16 10.39-6.78 14.3-3.91 2.4-7.38 4.15-11.51 4.1l-1.26 2.84s.56 5.71-3.71 11.24c-1.04 1.53-2.53 3.74-3.08 4.9-6.53 8.26-3.42 20.44-3.52 30.64-.05 4.15 4.3 7.82 7.7 10.78 3.11 5 2.26 13.96-1.09 18.62-16.85 17.97-32.15 35.3-48.85 52.66-4.86-.17-8.52-.83-11.65 3.84-3.13 4.08-6.12 1.5-9.23.46-3.67.12-2.69 4.98-5.71 6.02l-21.9-.27-3.76-.66c3.74-10.2 18.14-21.29 27.51-22.65 3.47-1.6 8.28 2.82 12.02-.92l35.23-40.11c3.08-7.55-8.79-13.43-13.62-18.16l-1.29.24c-8.5 9.74-13.82 12.8-25.69 13.86-13.72 1.21-26.03-2.6-38.19.29-2.35 2.28-3.84 5.17-7.55 4.18-3.2-.29-6.73-3.62-9.4-1.09-2.31 1.77-.65 6.14-3.54 6.17l-26.32-.32c-.66-1.51 1.19-4.15 2.31-5.85 6.17-10.78 17.99-21.93 30.33-21.85 16.36.15 27.34 2.43 43.58-.02 1.04-.24 4.15-1.72 4.47-3.38-.17-3.42-2.43-5.92-4.47-8.16-12.7-11.73-32.61-24.23-25.57-41.4 1.36-4.27 4.76-9.59 8.3-14.06l-36.44-34.02-3.38-3.23c-2.09-.73-2.91-1.09-5.58.8-3.11 5.39-1.12 14.28-1.7 19.72 1.02 3.45 5.37 6.14 2.94 9.69-.73 1.97-4.42 4.69-2.16 7.09 2.5 1.94 7.72 3.23 7.72 3.23s2.45-.15 1.51 6.26l.46 15.18-.49 4.3-4.49-.02c-3.57-1.72-4.86-3.89-4.86-3.89s-12.87-14.86-14.64-20.81c.97-19.47-1.58-43.12 3.08-59.97.66-.7 1.19-2.21 2.16-3.25l2.38-2.52-4.27-5.22c-4.76-7.14-10.08-18.99-17.51-27.66l-2.43-2.38c-3.08 2.02-2.45 6.8-3.71 9.62-1.7 5.78 0 11.48 3.84 15.85 3.01 4.66-6.05 8.16-.15 12.02 2.14 1.6 4.73-.05 5.85 3.55 0 0-.19 10.61.27 17.97.24 3.79-2.77 4.27-2.77 4.27-5.46-3.08-12.82-9.81-15.98-14.4l-3.08-6.77c-1.24-19.21-2.23-37.93-.92-55.89 1.58-5.97 8.21-12.38 13.55-15.85 2.45-1.77 6.19-1.19 8.16-.61 11.39 8.64 22.02 20.44 33.24 29.86 28.77-16.66 49.07-21.34 55.94-31.3" fill="#fff"/><path d="m501.19 137.66-3.84 3.76c-4.39 5.24-17.46 4.54-22.17 1.46-2.79-2.36-.75-1.19-4.64-3.3l-11.07-3.84c-4.27-.95-9.66 2.33-15.2.24-3.62-3.45-5.24-6.24-5.12-10.71 2.38-2.23 5.92-.78 8.01-1.87 1.77-.15 2.62-2.23 2.77-3.52.34-1.36-.51-2.23-1.07-3.23-3.79-1.67-8.52-.05-12.48-.78-2.02-.27-2.21-2.48-2.62-3.4-.29-3.5 4.95-5.22 6.8-7.92 5.92-10.73 21.9-5.34 32.46-9.03 9.01-1.63 16.83-6.82 29.72-7.84l.17 8.18-.17-8.18c0-12.26.17-13.79.17-13.79s2.94 2.96 5.9 8.11l7.62 16.46-5.41-12.34 2.62-.75-1.02-11.7 4.71 3.64c2.84 2.21 4.98 4.42 6.6 7.21 5.34 1.04 11.63-.41 18.87 1.36 2.6 1.89-10.93 4.76-7.6 9.49 3.57-2.14 21.93-3.52 19.69-1.41-4.49 4.27-9.71 4.27-8.3 8.06l6.94 3.21c3.23 3.08 6.48 8.4 6.12 12.7-3.03-1.29-11.14-8.93-10.73-2.06-1.07 3.03 2.19 3.93 3.23 7.38 3.23 5.44-2.28 9.32-2.94 13.86 1.38 4.61 7.36 3.86 11.17 3.38l-3.01 5.71c-1.29 4.47-6.58 5.54-9.37 7.09-2.28 4.03-2.35 10.46-1.63 16.41l-3.93-1.34c-2.87-.73-3.5-3.13-6.29-3.91l-2.38-2.36c-1.38 4.35 1.43 11.63 4.05 15.2l-2.45 1.07c-3.01 2.02-7.07-.36-11.1-1.31-.46 5.46 3.04 8.74 6.34 12.07l-3.25 1.46c-3.96 2.31-7.7 1.6-11.58 2.11-5.34.1-9.32 5.49-11.24 9.93-2.11 5.78-.56 12.75 3.11 18.19 6.8 8.11 14.42 17.07 23.09 24.3 2.36 1.26 19.81 16.24 21.56 23.94.73 2.06 1.8 5.22 2.16 5.85 3.21-1.09 10.66-1.7 10-6.63-.29-6.65-7.36-11.78-12.16-17.41-13.43-14.01-28.75-27.73-22.17-46.18 6.9-17.55 26.88-32.49 41.88-46.18 1.89-2.82 2.84-4.01 4.73-5.68l-.24 4.52c.24 5.46.73 9.27-4.66 15.78-.46 2.09-2.94 4.06-1.58 7.19 1.77 4.13 5.17 1.19 6.19.58l3.4-4.25v2.5c.15 4.13-3.35 7.16-6.77 14.47-2.38 5.54 2.96 11.31-1.85 15.54-2.26 2.74-7.16 4.61-7.07 8.47.56 1.38 1.46 3.79 3.45 4.1 3.69 2.67 5.61-2.94 8.69-3.04 3.3 11.53-6.77 17.31-6.77 26.32-.27 8.09 4.73 13.18 6.02 21.41 1.89 6.07-2.16 10.39-6.78 14.3-3.91 2.4-7.38 4.15-11.51 4.1l-1.26 2.84s.56 5.71-3.71 11.24c-1.04 1.53-2.53 3.74-3.08 4.9-6.53 8.26-3.42 20.44-3.52 30.64-.05 4.15 4.3 7.82 7.7 10.78 3.11 5 2.26 13.96-1.09 18.62-16.85 17.97-32.15 35.3-48.85 52.66-4.86-.17-8.52-.83-11.65 3.84-3.13 4.08-6.12 1.5-9.23.46-3.67.12-2.69 4.98-5.71 6.02l-21.9-.27-3.76-.66c3.74-10.2 18.14-21.29 27.51-22.65 3.47-1.6 8.28 2.82 12.02-.92l35.23-40.11c3.08-7.55-8.79-13.43-13.62-18.16l-1.29.24c-8.5 9.74-13.82 12.8-25.69 13.86-13.72 1.21-26.03-2.6-38.19.29-2.35 2.28-3.84 5.17-7.55 4.18-3.2-.29-6.73-3.62-9.4-1.09-2.31 1.77-.65 6.14-3.54 6.17l-26.32-.32c-.66-1.51 1.19-4.15 2.31-5.85 6.17-10.78 17.99-21.93 30.33-21.85 16.36.15 27.34 2.43 43.58-.02 1.04-.24 4.15-1.72 4.47-3.38-.17-3.42-2.43-5.92-4.47-8.16-12.7-11.73-32.61-24.23-25.57-41.4 1.36-4.27 4.76-9.59 8.3-14.06l-36.44-34.02-3.38-3.23c-2.09-.73-2.91-1.09-5.58.8-3.11 5.39-1.12 14.28-1.7 19.72 1.02 3.45 5.37 6.14 2.94 9.69-.73 1.97-4.42 4.69-2.16 7.09 2.5 1.94 7.72 3.23 7.72 3.23s2.45-.15 1.51 6.26l.46 15.18-.49 4.3-4.49-.02c-3.57-1.72-4.86-3.89-4.86-3.89s-12.87-14.86-14.64-20.81c.97-19.47-1.58-43.12 3.08-59.97.66-.7 1.19-2.21 2.16-3.25l2.38-2.52-4.27-5.22c-4.76-7.14-10.08-18.99-17.51-27.66l-2.43-2.38c-3.08 2.02-2.45 6.8-3.71 9.62-1.7 5.78 0 11.48 3.84 15.85 3.01 4.66-6.05 8.16-.15 12.02 2.14 1.6 4.73-.05 5.85 3.55 0 0-.19 10.61.27 17.97.24 3.79-2.77 4.27-2.77 4.27-5.46-3.08-12.82-9.81-15.98-14.4l-3.08-6.77c-1.24-19.21-2.23-37.93-.92-55.89 1.58-5.97 8.21-12.38 13.55-15.85 2.45-1.77 6.19-1.19 8.16-.61 11.39 8.64 22.02 20.44 33.24 29.86 28.77-16.66 49.07-21.34 55.94-31.3" fill="none" stroke="#000" stroke-linecap="round" stroke-linejoin="round" stroke-width="3"/><path d="m465.01 272.3 2.65 14.44" fill="#fff"/><path d="m465.01 272.3 2.65 14.44" fill="none" stroke="#000" stroke-linecap="round" stroke-linejoin="round" stroke-width="1.76"/><path d="m418.39 234.71c8.67-1.48 20.47-.17 28.12-.05m13.33 38.05 24.52 21.83m41.96-209.71c-2.36.15-13.6.12-14.76 1.31m-87.87 88.09c-4.42 2.57-10.78 7.43-12.82 14.2-1.53 4.01-4.08 10.68-4.44 15.35l-.07 7.48c2.6-.49 10.97-3.33 14.71-3.16l26.32-1.19m46.78 74.3c-3.59 3.08-7.33 7.82-8.45 12.31-1.24 4.73-3.06 9.57-.61 15.71 3.86 8.74 11.19 17.75 19.23 26.03 2.82 3.16 6.17 6.63 9.08 9.54" fill="#fff"/><path d="m418.39 234.71c8.67-1.48 20.47-.17 28.12-.05m13.33 38.05 24.52 21.83m41.96-209.71c-2.36.15-13.6.12-14.76 1.31m-87.87 88.09c-4.42 2.57-10.78 7.43-12.82 14.2-1.53 4.01-4.08 10.68-4.44 15.35l-.07 7.48c2.6-.49 10.97-3.33 14.71-3.16l26.32-1.19m46.78 74.3c-3.59 3.08-7.33 7.82-8.45 12.31-1.24 4.73-3.06 9.57-.61 15.71 3.86 8.74 11.19 17.75 19.23 26.03 2.82 3.16 6.17 6.63 9.08 9.54" fill="none" stroke="#000" stroke-linecap="round" stroke-miterlimit="3.86" stroke-width="1.76"/><path d="m458.76 105.61c5.75-3.91 9.69-3.45 15.15-.68" fill="#fff"/><path d="m458.76 105.61c5.75-3.91 9.69-3.45 15.15-.68" fill="none" stroke="#000" stroke-linecap="round" stroke-linejoin="round" stroke-width="1.76"/><path d="m462.94 103.35c2.79-1.19 3.16-1.09 6.09-.56 4.37 7.41-3.84 8.3-5.78 5.63-1.51-2.06-.75-2.79-.32-5.07" fill="#fff"/><path d="m462.94 103.35c2.79-1.19 3.16-1.09 6.09-.56 4.37 7.41-3.84 8.3-5.78 5.63-1.51-2.06-.75-2.79-.32-5.07" fill="none" stroke="#000" stroke-miterlimit="10"/><path d="m462.94 103.35c2.79-1.19 3.16-1.09 6.09-.56 4.37 7.41-3.84 8.3-5.78 5.63-1.51-2.06-.75-2.79-.32-5.07"/><path d="m462.94 103.35c2.79-1.19 3.16-1.09 6.09-.56 4.37 7.41-3.84 8.3-5.78 5.63-1.51-2.06-.75-2.79-.32-5.07z" fill="none" stroke="#000" stroke-miterlimit="10"/><path d="m25.63 24.88h297.17v454.71h-297.17z"/><g fill="#ffd700"><path d="m105.69 212.69 36.5-.49-74.61 43.89v-145.82l-25.41-.27 63.52-35.72z"/><path d="m268.04 212.16 36.5-.49-74.61 43.89v-145.82l-25.41-.27 63.52-35.72z"/><path d="m186 384.05 36.5-.48-74.61 43.89v-145.83l-25.41-.26 63.52-35.73z"/></g><path d="m619.98 24.88v452.77l-.02 2.47c-1.25 163.45-133.85 295.51-297.16 295.51s-297.17-133.32-297.17-297.85v-234.73s.02-160.78.02-160.78v-52.95s0-4.44 0-4.44zm24-24h-642.32v24s0 4.44 0 4.44v52.96s0 160.78 0 160.78v234.73c-.01 43.44 8.48 85.59 25.24 125.28 16.18 38.33 39.33 72.74 68.82 102.29s63.83 52.76 102.08 68.97c39.61 16.79 81.68 25.31 125.03 25.31s85.02-8.44 124.48-25.07c38.1-16.06 72.35-39.07 101.8-68.37 29.44-29.29 52.64-63.43 68.95-101.48 16.88-39.38 25.6-81.23 25.93-124.4l.02-2.47v-.1s0-.1 0-.1v-476.77z"/><g clip-path="url(#a)"><path d="m27 481.09h96.06v96.06h-96.06z" fill="#bb1f11"/><path d="m121.56 482.59v93.06h-93.06v-93.06zm3-3h-99.06v99.06h99.06z"/><path d="m126.06 481.09h96.06v96.06h-96.06z" fill="#fff"/><path d="m220.62 482.59v93.06h-93.06v-93.06zm3-3h-99.06v99.06h99.06z"/><path d="m324.31 481.09h96.06v96.06h-96.06z" fill="#fff"/><path d="m418.87 482.59v93.06h-93.06v-93.06zm3-3h-99.06v99.06h99.06z"/><path d="m522.27 481.09h96.06v96.06h-96.06z" fill="#fff"/><path d="m616.83 482.59v93.06h-93.06v-93.06zm3-3h-99.06v99.06h99.06z"/><path d="m423.23 580.15h96.06v96.06h-96.06z" fill="#fff"/><path d="m517.79 581.65v93.06h-93.06v-93.06zm3-3h-99.06v99.06h99.06z"/><path d="m225.25 580.15h96.06v96.06h-96.06z" fill="#fff"/><path d="m319.81 581.65v93.06h-93.06v-93.06zm3-3h-99.06v99.06h99.06z"/><path d="m27 580.15h96.06v96.06h-96.06z" fill="#fff"/><path d="m121.56 581.65v93.06h-93.06v-93.06zm3-3h-99.06v99.06h99.06z"/><path d="m126.06 679.68h96.06v96.06h-96.06z" fill="#fff"/><path d="m220.62 681.18v93.06h-93.06v-93.06zm3-3h-99.06v99.06h99.06z"/><path d="m324.31 678.15h96.06v96.06h-96.06z" fill="#fff"/><path d="m418.87 679.65v93.06h-93.06v-93.06zm3-3h-99.06v99.06h99.06z"/><path d="m522.27 678.15h96.06v96.06h-96.06z" fill="#fff"/><path d="m616.83 679.65v93.06h-93.06v-93.06zm3-3h-99.06v99.06h99.06z"/><path d="m225.25 481.09h96.06v96.06h-96.06z" fill="#bb1f11"/><path d="m319.81 482.59v93.06h-93.06v-93.06zm3-3h-99.06v99.06h99.06z"/><path d="m126.06 580.15h96.06v96.06h-96.06z" fill="#bb1f11"/><path d="m220.62 581.65v93.06h-93.06v-93.06zm3-3h-99.06v99.06h99.06z"/><path d="m27 679.57h96.06v96.06h-96.06z" fill="#bb1f11"/><path d="m121.56 681.07v93.06h-93.06v-93.06zm3-3h-99.06v99.06h99.06z"/><path d="m225.25 678.15h96.06v96.06h-96.06z" fill="#bb1f11"/><path d="m319.81 679.65v93.06h-93.06v-93.06zm3-3h-99.06v99.06h99.06z"/><path d="m324.31 580.15h96.06v96.06h-96.06z" fill="#bb1f11"/><path d="m418.87 581.65v93.06h-93.06v-93.06zm3-3h-99.06v99.06h99.06z"/><path d="m423.23 481.09h96.06v96.06h-96.06z" fill="#bb1f11"/><path d="m517.79 482.59v93.06h-93.06v-93.06zm3-3h-99.06v99.06h99.06z"/><path d="m522.27 580.15h96.06v96.06h-96.06z" fill="#bb1f11"/><path d="m616.83 581.65v93.06h-93.06v-93.06zm3-3h-99.06v99.06h99.06z"/><path d="m423.23 679.11h96.06v96.06h-96.06z" fill="#bb1f11"/><path d="m517.79 680.61v93.06h-93.06v-93.06zm3-3h-99.06v99.06h99.06z"/></g></svg>