<?xml version="1.0" encoding="UTF-8"?>
<svg xmlns="http://www.w3.org/2000/svg" viewBox="0 0 437.09 629.41">
  <defs>
    <style>
      .uuid-9a474037-1e59-4602-9b7d-23662a325986 {
        fill: #000;
      }

      .uuid-9a474037-1e59-4602-9b7d-23662a325986, .uuid-22dd99e3-b32f-40f2-b9bc-3c2d7413fa20 {
        stroke-width: 0px;
      }

      .uuid-22dd99e3-b32f-40f2-b9bc-3c2d7413fa20 {
        fill: #fff;
      }
    </style>
  </defs>
  <g id="uuid-13e23ab4-816b-4be2-9df3-3872a8dbbbc9" data-name="Hintergründe">
    <g id="uuid-ec4908ce-c03e-4e9e-8b1a-cd1d0dabbe8a" data-name="Raute">
      <polygon class="uuid-9a474037-1e59-4602-9b7d-23662a325986" points="42.41 324.69 219.54 54.52 396.68 324.69 219.54 575.27 42.41 324.69"/>
      <path class="uuid-9a474037-1e59-4602-9b7d-23662a325986" d="M219.54,61.81l172.29,262.8-172.29,243.74L47.25,324.61,219.54,61.81M219.54,47.22l-6.69,10.2L40.56,320.22l-2.99,4.56,3.14,4.45,172.29,243.74,6.53,9.24,6.53-9.24,172.29-243.74,3.14-4.45-2.99-4.56L226.23,57.43l-6.69-10.2h0Z"/>
    </g>
  </g>
  <g id="uuid-517ac731-a6ab-4f21-8c18-af35de4f4183" data-name="Lilie">
    <g id="uuid-f14a57e3-d4ad-43c1-b07d-a60ddbbe2c96" data-name="Links einfarbig">
      <g id="uuid-59d3a128-a5c6-4dee-9b0a-6a6c34ff8ab7" data-name="Innen">
        <path class="uuid-22dd99e3-b32f-40f2-b9bc-3c2d7413fa20" d="M147.66,466.33c1.27-3.37,8.57-23.11,13.73-45.6,7.61-33.21,7.17-56.32-1.3-68.69-4.65-6.79-11.75-10.24-21.08-10.24-5.24,0-9.52,2.06-12.72,6.11-6.43,8.15-8.5,24.23-6.15,47.77.8,8,2,15.55,3.06,21.39-2.97-7.98-7-19.59-10.37-32.15-8.11-30.22-8.79-52.19-1.98-63.54,3.36-5.6,8.64-8.75,15.69-9.37,1.31-.21,2.63-.31,4-.31,9.65,0,23.37,5.16,32.91,19.66,12.82,19.48,20.9,59.37-13,138.87l-2.78-3.9Z"/>
        <path class="uuid-9a474037-1e59-4602-9b7d-23662a325986" d="M130.53,312.7c9.39,0,22.75,5.05,32.07,19.21,8.06,12.24,11.64,28.79,10.65,49.2-1.18,24.34-8.93,53.63-23.04,87.09l-1.43-2.01c1.69-4.53,8.62-23.61,13.58-45.23,7.68-33.49,7.19-56.87-1.45-69.48-4.85-7.08-12.22-10.67-21.9-10.67-5.56,0-10.11,2.18-13.5,6.49-9.55,12.11-7.93,39.17-5.13,58.81-8.57-25.23-19.58-66.03-8.66-84.21,3.23-5.38,8.11-8.29,14.92-8.88h.07s.07-.02.07-.02c1.18-.19,2.45-.29,3.76-.29M130.53,310.7c-1.44,0-2.81.11-4.09.32-47.91,4.2.06,117.26.06,117.26,0,0-20.52-85.47,12.49-85.47,55.42,0,7.53,123.68,7.53,123.68l4.12,5.79c54.58-126.71,5.61-161.56-20.12-161.56h0Z"/>
      </g>
      <g id="uuid-231a00fb-abfd-4ba7-9be7-d366d40caf71" data-name="Außen">
        <path class="uuid-22dd99e3-b32f-40f2-b9bc-3c2d7413fa20" d="M161.06,485.34c-1.51-2.1-4.75-6.72-5.73-8.14,15.72-36.42,24.41-68.57,25.81-95.56,1.2-23.03-2.84-41.78-12.01-55.74-9.47-14.42-24.05-22.69-40.01-22.69-2.12,0-4.24.16-6.29.46-9.1,1.36-15.84,5.9-20.03,13.5-7.57,13.72-6.92,37.08,1.93,69.4,4.03,14.75,8.95,28.08,12.15,36.21l-69.42-98.2c5.31-8.19,66.96-102.23,74.21-113.21,29.99,33.32,50.84,68.21,61.96,103.69,9.02,28.78,11.7,58.05,7.99,87.01-5.88,45.81-25.79,76.48-30.55,83.26Z"/>
        <path class="uuid-9a474037-1e59-4602-9b7d-23662a325986" d="M121.79,213.01c29.43,32.92,49.91,67.35,60.88,102.36,8.97,28.64,11.65,57.77,7.95,86.58-5.56,43.36-23.74,73.05-29.57,81.65-1.46-2.06-3.56-5.05-4.58-6.51,15.63-36.33,24.27-68.42,25.67-95.4,1.21-23.24-2.89-42.2-12.17-56.34-9.66-14.71-24.55-23.14-40.85-23.14-2.17,0-4.33.16-6.44.47-9.43,1.41-16.41,6.12-20.76,14-7.7,13.96-7.08,37.56,1.84,70.15,2.98,10.91,6.45,21.04,9.35,28.88l-64.44-91.17c7.06-10.83,63.5-96.94,73.12-111.55M121.55,209.75c-.08,0-75.32,114.82-75.29,114.86l74.9,105.96s-51.93-117.88,1.82-125.91c2-.3,4.06-.45,6.15-.45,35.61,0,80.72,44.57,25.07,173.09-.01.03,6.8,9.73,6.88,9.73,0,0,0,0,0,0,3.03-4.11,94.23-129.69-39.52-277.29h0Z"/>
      </g>
    </g>
    <g id="uuid-437ff94f-5b10-4352-926e-a55461233b26" data-name="Rechts einfarbig">
      <g id="uuid-e8d74e89-09c0-4a80-9f24-4664b4640cd7" data-name="Innen">
        <path class="uuid-22dd99e3-b32f-40f2-b9bc-3c2d7413fa20" d="M288.65,470.23c-33.9-79.51-25.82-119.39-13-138.87,9.54-14.5,23.25-19.66,32.91-19.66,1.37,0,2.69.1,3.92.31,7.12.63,12.4,3.78,15.76,9.38,6.82,11.35,6.14,33.32-1.98,63.54-3.37,12.56-7.4,24.18-10.37,32.15,1.07-5.84,2.26-13.39,3.06-21.39,2.35-23.55.28-39.62-6.15-47.77-3.2-4.06-7.48-6.11-12.72-6.11-9.33,0-16.42,3.45-21.08,10.24-8.47,12.37-8.91,35.48-1.3,68.69,5.15,22.49,12.45,42.23,13.73,45.6l-2.78,3.9Z"/>
        <path class="uuid-9a474037-1e59-4602-9b7d-23662a325986" d="M308.56,312.7c1.32,0,2.58.1,3.76.29h.07s.07.02.07.02c6.8.6,11.68,3.5,14.92,8.88,10.92,18.17-.09,58.97-8.66,84.21,2.8-19.63,4.41-46.7-5.13-58.81-3.4-4.31-7.94-6.49-13.5-6.49-9.68,0-17.05,3.59-21.9,10.67-8.64,12.61-9.13,35.99-1.45,69.48,4.95,21.62,11.89,40.7,13.58,45.23l-1.43,2.01c-14.11-33.46-21.87-62.75-23.04-87.09-.99-20.41,2.6-36.96,10.65-49.2,9.32-14.16,22.68-19.21,32.07-19.21M308.56,310.7c-25.73,0-74.7,34.86-20.12,161.56l4.12-5.79s-47.89-123.68,7.53-123.68c33.01,0,12.49,85.47,12.49,85.47,0,0,47.98-113.05.06-117.26-1.27-.21-2.64-.32-4.09-.32h0Z"/>
      </g>
      <g id="uuid-541e05b8-6f1a-48db-a7c8-74925190efe8" data-name="Außen">
        <path class="uuid-22dd99e3-b32f-40f2-b9bc-3c2d7413fa20" d="M278.03,485.34c-9.49-13.6-86.73-133.85,39.39-273.97,7.25,10.97,68.9,105.02,74.21,113.21l-69.42,98.2c3.2-8.12,8.11-21.46,12.15-36.21,8.84-32.33,9.49-55.68,1.93-69.4-4.19-7.6-10.93-12.14-20.03-13.5-2.06-.31-4.18-.46-6.29-.46-15.96,0-30.54,8.27-40.01,22.69-9.17,13.96-13.21,32.71-12.01,55.74,1.41,26.99,10.09,59.14,25.81,95.56-.98,1.42-4.22,6.03-5.73,8.13Z"/>
        <path class="uuid-9a474037-1e59-4602-9b7d-23662a325986" d="M317.3,213.01c9.62,14.61,66.06,100.72,73.12,111.55l-64.44,91.17c2.9-7.84,6.36-17.98,9.35-28.88,8.92-32.59,9.54-56.19,1.84-70.15-4.35-7.88-11.33-12.59-20.76-14-2.11-.31-4.27-.47-6.44-.47-16.3,0-31.19,8.44-40.85,23.14-9.29,14.14-13.38,33.09-12.17,56.34,1.4,26.98,10.04,59.07,25.67,95.4-1.02,1.46-3.12,4.45-4.58,6.51-5.83-8.6-24.01-38.29-29.57-81.65-3.7-28.81-1.02-57.95,7.95-86.58,10.97-35.01,31.45-69.44,60.88-102.36M317.54,209.75h0c-133.76,147.6-42.55,273.18-39.52,277.29,0,0,0,0,0,0,.08,0,6.89-9.7,6.88-9.73-55.64-128.52-10.53-173.09,25.07-173.09,2.09,0,4.15.15,6.15.45,53.74,8.03,1.82,125.91,1.82,125.91l74.9-105.96s-75.21-114.86-75.29-114.86h0Z"/>
      </g>
    </g>
    <g id="uuid-063e6027-8d01-4e38-9ef0-075016f1cc7d" data-name="Mitte">
      <g id="uuid-fb60496c-545c-45c3-a1f0-91fad5cd6c65" data-name="Links">
        <path class="uuid-22dd99e3-b32f-40f2-b9bc-3c2d7413fa20" d="M182.56,515.72c2.68-5.16,22.83-45.65,28.14-103.21,3.33-36.05.27-71.67-9.07-105.85-11.62-42.5-33.06-82.9-63.72-120.07l79.63-121.43v500.04l-34.98-49.48Z"/>
        <path class="uuid-9a474037-1e59-4602-9b7d-23662a325986" d="M216.54,68.51v493.54l-32.81-46.42c3.59-7.07,22.8-47.01,27.97-103.04,3.34-36.17.28-71.91-9.1-106.2-11.6-42.43-32.94-82.75-63.44-119.87l77.39-118.01M218.54,61.81l-81.87,124.84c135.12,163.16,44.72,329.14,44.72,329.14l37.15,52.55V61.81h0Z"/>
      </g>
      <g id="uuid-9340b15d-87cf-4b53-afbd-cefdd2b74df0" data-name="Rechts">
        <path class="uuid-22dd99e3-b32f-40f2-b9bc-3c2d7413fa20" d="M219.54,65.16l79.63,121.43c-30.66,37.17-52.1,77.56-63.72,120.07-9.35,34.18-12.4,69.79-9.07,105.85,5.31,57.56,25.46,98.05,28.14,103.21l-34.98,49.48V65.16Z"/>
        <path class="uuid-9a474037-1e59-4602-9b7d-23662a325986" d="M220.54,68.51l77.39,118.01c-30.5,37.12-51.84,77.45-63.44,119.87-9.38,34.3-12.44,70.03-9.1,106.2,5.17,56.03,24.37,95.97,27.97,103.04l-32.81,46.42V68.51M218.54,61.81v506.53l37.15-52.55s-90.4-165.97,44.72-329.14l-81.87-124.84h0Z"/>
      </g>
    </g>
    <g id="uuid-05241d9a-fa81-4078-89f5-8de0c4871862" data-name="Bund">
      <rect class="uuid-22dd99e3-b32f-40f2-b9bc-3c2d7413fa20" x="143.65" y="388.3" width="151.66" height="16.64"/>
      <path class="uuid-9a474037-1e59-4602-9b7d-23662a325986" d="M293.31,390.3v12.64h-147.66v-12.64h147.66M297.31,386.3h-155.66v20.64h155.66v-20.64h0Z"/>
    </g>
  </g>
</svg>