<?xml version="1.0" encoding="UTF-8"?>
<svg id="uuid-4a2e53a9-087f-4785-a041-c019b981d09c" data-name="Ebene 4" xmlns="http://www.w3.org/2000/svg" width="154.2mm" height="222.04mm" viewBox="0 0 437.09 629.41">
  <polygon id="uuid-088cf9e2-7e3f-441b-aaad-5b3d5297437d" data-name="Rahmen klein" points="218.54 591.8 21.3 324.44 218.54 37.85 417.66 324.44 218.54 591.8" fill="#000" stroke-width="0"/>
  <path id="uuid-117a7b09-0f57-43c0-af4b-4d224016b68d" data-name="Blatt_links_klein" d="M142.91,466.24s46.04-123.68-9.38-123.68c-41.62,0-7.65,95.5-7.65,95.5-8.26-24.64-63.03-122.18-4.9-127.28,24.01-3.94,83.76,27.44,26.13,161.24" fill="#fff" stroke-width="0"/>
  <path id="uuid-ca5f25df-a333-4880-b150-ae2b143b4ba6" data-name="Blatt_links_groß" d="M40.74,324.44l76.53-115.01c136.14,150.13,40.31,277.49,40.31,277.49l-7.4-9.88c58.94-136.11,3.44-177.99-32.68-172.6-62.11,9.28-8.93,102.21,3.09,131.45" fill="#fff" stroke-width="0"/>
  <path id="uuid-7dbb55b9-e237-4d93-a32e-84d359a9227e" data-name="Blatt_rechts_klein" d="M295.91,466.47s-46.04-123.68,9.38-123.68c41.62,0,7.65,95.5,7.65,95.5,8.26-24.64,63.03-122.18,4.9-127.28-24.01-3.94-83.76,27.44-26.13,161.24" fill="#fff" stroke-width="0"/>
  <path id="uuid-61d37eac-83b8-426d-8f84-845ba03d7400" data-name="Blatt_rechts_groß" d="M398.08,324.67l-76.53-115.01c-136.14,150.13-40.31,277.49-40.31,277.49l7.4-9.88c-58.94-136.11-3.44-177.99,32.68-172.6,62.11,9.28,8.93,102.21-3.09,131.45" fill="#fff" stroke-width="0"/>
  <path id="uuid-5d77f07b-a81b-4e62-846e-d6e72d81c111" data-name="Blatt_Mitte_Rechts" d="M305.52,186.66c-135.12,163.16-45.56,329.14-45.56,329.14l-38.43,52.55V61.81s83.99,124.84,83.99,124.84Z" fill="#fff" stroke-width="0"/>
  <path id="uuid-37e65343-7309-44b3-95c3-03111b812bdc" data-name="Blatt_Mitte_links" d="M132.4,186.66c135.12,163.16,44.64,329.14,44.64,329.14l38.43,52.55V61.81l-83.08,124.84Z" fill="#fff" stroke-width="0"/>
  <rect id="uuid-5494a1dd-d763-41e0-8f67-acb32180bca6" data-name="Bund Außen" x="136.18" y="380.83" width="166.61" height="31.55" fill="#000" stroke-width="0"/>
  <rect id="uuid-b0b29b88-a69b-486b-8326-64b54decf3a3" data-name="Bund_Innen" x="141.65" y="386.3" width="155.66" height="20.64" fill="#fff" stroke-width="0"/>
</svg>