<?xml version="1.0" encoding="UTF-8"?>
<svg id="uuid-10099c3e-0677-46d0-a244-746e04f10ad2" data-name="Ebene 4" xmlns="http://www.w3.org/2000/svg" width="154.2mm" height="222.04mm" viewBox="0 0 437.09 629.41">
  <path id="uuid-408934da-198d-47f3-bb4c-9e10d62d87b8" data-name="Blatt_Mitte_rechts_Hintergrund" d="M39.52,324.95l76.99-114.55c136.14,150.13,39.85,277.03,39.85,277.03" fill="#fff" stroke-width="0"/>
  <path id="uuid-8a64e97d-98e5-42c9-a79d-641eab8d21f4" data-name="Blatt_Mitte_Rechts" d="M305.09,186.7c-136.26,164.54-45.94,328.91-45.94,328.91l-40.6,55.59V55.26l86.54,131.44Z" fill="#fff" stroke-width="0"/>
  <path id="uuid-637a8f00-213d-4993-9c8c-648e8a801c9d" data-name="Blatt_Mitte_Rechts" d="M299.13,187.17c-134.58,161.74-45.56,329.14-45.56,329.14l-35.43,49.55V65.32s80.99,121.84,80.99,121.84Z" fill="#000" stroke-width="0"/>
  <path id="uuid-e67aeec3-ac59-4b74-9e76-ddc84da8acfc" data-name="Blatt_Mitte_links" d="M133.01,186.76c136.33,164.62,45.04,329.07,45.04,329.07l40.49,55.36V55.26l-85.53,131.5Z" fill="#fff" stroke-width="0"/>
  <path id="uuid-457c4012-03cb-4f30-ab5a-bfc219951bf1" data-name="Blatt_rechts_groß" d="M39.67,325.18l76.53-115.01c136.14,150.13,40.31,277.49,40.31,277.49l-7.4-9.88c58.94-136.11,3.44-177.99-32.68-172.6-62.11,9.28-8.93,101.21,3.09,130.45" fill="#fff" stroke-width="0"/>
  <path id="uuid-c8c5aa6b-af5a-441d-8474-2248bb0ce782" data-name="Blatt_rechts_klein" d="M144.71,462.54s43.78-123.08-11.63-123.08c-41.62,0-10.21,95.87-10.21,95.87,0,0-86.12-130.04-2.97-135.81,47.36-.09,99.19,56.42,37.2,179.76" fill="#000" stroke-width="0"/>
  <path id="uuid-ac4b4573-0704-4737-bfd4-f3d5b2dbaedf" data-name="Blatt_Mitte_rechts_Hintergrund" d="M397.69,324.85l-76.99-114.55c-136.14,150.13-39.85,277.03-39.85,277.03" fill="#fff" stroke-width="0"/>
  <path id="uuid-0fe4656f-7fda-4847-b030-de28898099ac" data-name="Blatt_rechts_groß" d="M397.54,325.08l-76.53-115.01c-136.14,150.13-40.31,277.49-40.31,277.49l7.4-9.88c-58.94-136.11-3.44-177.99,32.68-172.6,62.11,9.28,8.93,101.21-3.09,130.45" fill="#fff" stroke-width="0"/>
  <path id="uuid-c09640bd-f305-41e6-b48c-7b8f4122fa1a" data-name="Blatt_rechts_klein" d="M292.5,462.44s-43.78-123.08,11.63-123.08c41.62,0,10.21,95.87,10.21,95.87,0,0,86.12-130.04,2.97-135.81-47.36-.09-99.19,56.42-37.2,179.76" fill="#000" stroke-width="0"/>
  <rect id="uuid-b673fdc8-3fb7-424f-8bf6-36b1621194e4" data-name="Bund Außen" x="135.79" y="381.34" width="166.61" height="31.55" fill="#fff" stroke-width="0"/>
  <rect id="uuid-43d3804a-5b43-4b33-aa45-3dcc99f4f577" data-name="Bund_Innen" x="141.26" y="386.81" width="155.66" height="20.64" fill="#000" stroke-width="0"/>
</svg>