<svg width="100%" height="100%" role="img" viewBox="0 0 450 637" xmlns="http://www.w3.org/2000/svg" fill="white" color="black" aria-labelledby="title">
    <title id="title">Lilie des Deutschen Pfadfinderbund</title>
    <style>
        :root{
            color-scheme: light dark;
        }

        [href="#shading"] {
            stroke: currentColor;
            stroke-width: 5;
        }

        .outline {stroke: currentColor;}

        .shaded {
            stroke-width: 0;
            fill: currentColor;
        }

        @media (prefers-color-scheme: dark) {
            .outline {stroke: white;}

            [href="#shading"] {
                mask: url(#outline);
            }   

            .shaded {
                stroke-width: 5;
            }

            rect {fill: currentColor;}
        }

        [mask="url(#mask)"] {stroke-width:16;}
    </style> 

    <mask id="mask">
        <use href="#center" />
        <use href="#outer" />
    </mask>
    <mask id="outline" stroke-width="15" stroke="#000">
        <use href="#outer" />
    </mask>

    <use class="outline" href="#outer" mask="url(#mask)"/>
    <use class="outline" href="#outer" mask="url(#mask)" transform="scale(-1,1)" transform-origin="50%"/>

    <use class="outline" href="#center" mask="url(#mask)" />
    <use class="outline shaded" href="#center" transform="scale(-1,1)" transform-origin="50%"  mask="url(#mask)" />

    <use class="shaded" href="#shading" />
    <use class="shaded" href="#shading" transform="scale(-1,1)" transform-origin="50%"/>

    <line x1="225" y1="0%" x2="225" y2="100%" stroke="black" stroke-width="5" mask="url(#mask)"/>
    <rect class="outline" x="131" y="393" width="188" height="32" stroke-width="7"/>

    <defs>
        <path id="outer"
            d="M107.3 166.4a170 266 0 0152 377l-27.5-38.9C156.3 441 159.3 343 118.3 344.3s-1 100-19.4 113.7L0 318.2Z" />
        <path id="center" d="M225 0 121.6 146.2A127 265 0 01173 562.9l52 73.5"/>
        <path id="shading"
            d="M 131.8 504.5 C 156.3 441 159.3 343 118.3 344.3 S 117.3 444.3 98.9 458 C 82 384 54 362 53 335 S 63 279 99 279 S 211 338 146 525 Z"/>
    </defs>
</svg>