<?xml version="1.0" encoding="UTF-8"?>
<svg id="uuid-a162108b-9519-4988-abf9-cb04ebf7094b" data-name="Lilie" xmlns="http://www.w3.org/2000/svg" viewBox="0 0 437.09 629.41">
  <defs>
    <style>
      .uuid-14b99681-52b5-4bb3-80a2-07b83ecca85e {
        stroke: #fff;
        stroke-miterlimit: 10;
        stroke-width: 4px;
      }

      .uuid-14b99681-52b5-4bb3-80a2-07b83ecca85e, .uuid-8663f51f-efbf-4d95-8d75-d52f07f622ee {
        fill: #fff;
      }

      .uuid-7691712b-2127-4049-9e98-1c84da889532 {
        fill: #000;
      }

      .uuid-7691712b-2127-4049-9e98-1c84da889532, .uuid-8663f51f-efbf-4d95-8d75-d52f07f622ee {
        stroke-width: 0px;
      }
    </style>
  </defs>
  <g id="uuid-d7e91c60-00a6-4d06-8be6-6d1deb433360" data-name="Links zweifarbig">
    <path id="uuid-9363bf17-734d-4fd3-b8f2-8039b1518ed7" data-name="Blatt_links_aussen" class="uuid-14b99681-52b5-4bb3-80a2-07b83ecca85e" d="M155.23,477.58,161.6,487.41c3.03-4.11,94.15-129.68-39.61-277.28l-74.81,114.11,80.45,115.12s-22.08-96.19,10.93-96.19c55.42,0,8.5,123.68,8.5,123.68l14.54,20.57Z"/>
    <g id="uuid-742fca68-f906-42e1-9cf5-70d836d978a8" data-name="Blatt_links_innen">
      <path class="uuid-7691712b-2127-4049-9e98-1c84da889532" d="M149.73,466.62c.92-2.46,8.35-22.52,13.47-45.6,7.32-33.01,6.69-56.12-1.88-68.69-4.79-7.03-12.12-10.64-21.77-10.73h-.16c-4.77,0-8.72,1.91-11.75,5.67-13.28,16.49-5.93,64.06-2.7,81.35-7.05-19.8-27.68-83.09-12.67-107.27,3.52-5.67,8.84-8.85,15.82-9.47,1.17-.2,2.39-.3,3.67-.3,9.68,0,24.83,5.86,35.71,22.39,8.84,13.44,13.04,30.99,12.48,52.17-.69,25.7-8.48,56.12-23.18,90.43l-7.04-9.95Z"/>
      <path class="uuid-8663f51f-efbf-4d95-8d75-d52f07f622ee" d="M131.77,312.08c9.55,0,24.52,5.8,35.29,22.16,8.79,13.35,12.96,30.81,12.39,51.88-.68,25.43-8.35,55.51-22.79,89.42l-6.37-9c1.25-3.35,8.42-22.96,13.4-45.42,7.35-33.15,6.69-56.39-1.95-69.08-4.89-7.18-12.35-10.86-22.18-10.95h-.16c-4.93,0-9.01,1.97-12.14,5.86-6.82,8.46-9.14,25.89-6.9,51.79.78,8.98,1.99,17.47,3.07,23.97-8.2-24.17-24.39-79.08-10.72-101.1,3.43-5.53,8.63-8.63,15.44-9.23h.04s.04-.01.04-.01c1.1-.19,2.29-.29,3.54-.29M131.77,311.08c-1.32,0-2.56.1-3.71.31-47.91,4.2-1.36,123.42-1.36,123.42,0,0-20.23-92.71,12.7-92.71.05,0,.11,0,.16,0,57.16.5,9.62,124.59,9.62,124.59l7.71,10.89c54.81-127.25.51-166.5-25.11-166.5h0Z"/>
    </g>
  </g>
  <g id="uuid-3ff9aaf7-1782-48fe-8cf7-61ce56dd2f86" data-name="Rechts zweifarbig">
    <path id="uuid-bf4031c2-a0f8-47f2-88d8-8820a3e44f85" data-name="Außen" class="uuid-14b99681-52b5-4bb3-80a2-07b83ecca85e" d="M283.73,477.58,291.9,466.84s-46.91-123.68,8.5-123.68c33.01,0,10.93,96.19,10.93,96.19l80.45-115.12-74.81-114.11c-133.76,147.6-42.64,273.17-39.61,277.28l14.54-20.57Z"/>
    <g id="uuid-bb3d279a-784f-4f41-a9bd-58debdb8efc1" data-name="Innen">
      <path class="uuid-7691712b-2127-4049-9e98-1c84da889532" d="M283.18,476.57c-14.7-34.31-22.5-64.73-23.18-90.43-.57-21.18,3.63-38.73,12.48-52.17,10.87-16.52,26.03-22.39,35.7-22.39,1.28,0,2.5.1,3.62.3,7.02.62,12.35,3.8,15.87,9.47,15.01,24.18-5.62,87.47-12.67,107.27,3.23-17.29,10.58-64.87-2.7-81.35-3.03-3.76-6.98-5.67-11.75-5.67h-.16c-9.65.09-16.97,3.7-21.77,10.73-8.57,12.58-9.2,35.69-1.88,68.69,5.12,23.08,12.55,43.14,13.47,45.6l-7.04,9.95Z"/>
      <path class="uuid-8663f51f-efbf-4d95-8d75-d52f07f622ee" d="M308.18,312.08h0c1.25,0,2.44.1,3.54.29h.04s.04.01.04.01c6.82.6,12.01,3.7,15.44,9.23,13.67,22.02-2.53,76.94-10.73,101.1,1.08-6.51,2.3-15,3.07-23.98,2.24-25.9-.08-43.33-6.9-51.79-3.13-3.88-7.21-5.85-12.14-5.85h-.17c-9.82.09-17.29,3.77-22.18,10.95-8.65,12.69-9.3,35.94-1.95,69.08,4.98,22.45,12.15,42.07,13.4,45.42l-6.37,9c-14.44-33.92-22.11-64-22.79-89.43-.56-21.08,3.61-38.53,12.4-51.88,10.76-16.35,25.73-22.15,35.28-22.15M308.18,311.08c-25.61,0-79.92,39.25-25.11,166.5l7.71-10.89s-47.55-124.09,9.62-124.59c.05,0,.11,0,.16,0,32.94,0,12.7,92.71,12.7,92.71,0,0,46.55-119.21-1.36-123.42-1.15-.2-2.39-.31-3.71-.31h0Z"/>
    </g>
  </g>
  <g id="uuid-b4c9e475-e7e9-4305-8fc8-02a507c451dc" data-name="Mitte">
    <g id="uuid-55bf4220-c13c-4b9f-bdf7-7408207e6ae7" data-name="Links">
      <path class="uuid-8663f51f-efbf-4d95-8d75-d52f07f622ee" d="M183.73,515.63c3.59-7.07,22.8-47.01,27.97-103.04,3.34-36.17.28-71.9-9.1-106.2-11.6-42.43-32.94-82.75-63.44-119.87l77.39-118.01v493.54l-32.81-46.42Z"/>
      <path class="uuid-8663f51f-efbf-4d95-8d75-d52f07f622ee" d="M214.54,75.2v292.47c-1.16-20.96-4.5-41.64-10.02-61.82-11.55-42.26-32.71-82.45-62.89-119.47l72.91-111.18M214.54,401.12v154.64l-28.48-40.29c4.78-9.52,22.58-48.02,27.62-102.69.36-3.89.64-7.78.86-11.66M218.54,61.81l-81.87,124.84c135.12,163.16,44.72,329.14,44.72,329.14l37.15,52.55V61.81h0Z"/>
    </g>
    <g id="uuid-9eb5d5c9-d0a6-4618-93c4-a6d77f6517f6" data-name="Rechts">
      <path class="uuid-7691712b-2127-4049-9e98-1c84da889532" d="M220.54,68.51l77.39,118.01c-30.5,37.12-51.84,77.44-63.44,119.87-9.38,34.3-12.44,70.03-9.1,106.2,5.17,56.03,24.37,95.97,27.97,103.04l-32.81,46.42V68.51Z"/>
      <path class="uuid-8663f51f-efbf-4d95-8d75-d52f07f622ee" d="M222.54,75.2l72.91,111.18c-30.18,37.03-51.34,77.21-62.89,119.47-5.52,20.18-8.86,40.85-10.02,61.82V75.2M222.54,401.12c.21,3.88.5,7.77.86,11.66,5.04,54.67,22.84,93.18,27.62,102.69l-28.48,40.29v-154.64M218.54,61.81v506.53l37.15-52.55s-90.4-165.97,44.72-329.14l-81.87-124.84h0Z"/>
    </g>
  </g>
  <g id="uuid-2b7ed65e-d122-424e-a97d-22f37b05a542" data-name="Bund">
    <rect class="uuid-7691712b-2127-4049-9e98-1c84da889532" x="143.65" y="388.3" width="151.66" height="16.64"/>
    <path class="uuid-8663f51f-efbf-4d95-8d75-d52f07f622ee" d="M293.31,390.3v12.64h-147.66v-12.64h147.66M297.31,386.3h-155.66v20.64h155.66v-20.64h0Z"/>
  </g>
</svg>