<?xml version="1.0" encoding="UTF-8"?>
<svg id="uuid-d35e3ad1-5994-48f6-9485-8f6122c032e6" data-name="postiv" xmlns="http://www.w3.org/2000/svg" width="154.2mm" height="222.04mm" viewBox="0 0 437.09 629.41">
  <path id="uuid-186e0ff5-48cc-4209-afdc-cb09b493eb96" data-name="Rahmen" d="M156.84,414.05c0,.6.01.98,0,1.35-.02.38-.08.77-.09,1.16-.17,11.49-1.96,22.77-4.58,33.93-2.99,12.73-7.1,25.12-11.3,37.49-.33.99-.22,1.66.38,2.52,4.13,5.73,8.19,11.52,12.26,17.3,1.77,2.5,3.52,5.02,5.57,7.95,2.96-5.6,5.91-10.76,8.46-16.11,7.54-15.82,13.35-32.3,18.01-49.18,2.57-9.3,4.76-18.68,5.52-28.33.22-2.69.03-5.4.03-8.32h15.1c.27,2.73.63,5.32.77,7.93.55,10.24-.65,20.33-2.67,30.35-2.7,13.3-6.52,26.29-11.38,38.94-5.9,15.38-12.23,30.58-18.4,45.85-.43,1.05-.56,1.84.15,2.89,13.88,20.19,27.7,40.41,41.54,60.62,1.55,2.26,3.12,4.5,4.74,6.84.29-.37.48-.58.63-.82,14.71-22.3,29.4-44.59,44.13-66.89.49-.74.59-1.39.3-2.27-3.95-11.87-8.14-23.68-11.68-35.68-3.61-12.23-6.8-24.6-9.74-37.03-3.28-13.88-5.22-28-6.01-42.27-.15-2.88-.02-5.77-.02-9.08,4.18,0,8.53-.02,12.88.04.28,0,.72.64.79,1.04,2.65,13.19,4.98,26.45,7.96,39.56,4.2,18.44,9.94,36.45,17.49,53.83,1.22,2.82,2.57,5.59,4.05,8.82,6.8-10,13.37-19.63,19.88-29.3.32-.48.25-1.39.07-2.01-3.74-12.6-7.68-25.14-11.26-37.79-2.84-10.08-4.75-20.37-5.28-30.87-.06-1.23,0-2.46,0-3.79.51.04.75.09.98.1,3.67.12,7.36.48,11.02.31,3.72-.18,5.54-2.2,5.94-5.93.32-2.98.57-5.98.78-8.98.39-5.75-.19-11.43-1.71-17-.53-1.94-1.82-3.04-3.74-3.41-.85-.16-1.72-.27-2.59-.31-2.33-.12-4.65-.2-6.98-.26-.75-.02-1.09-.27-1.21-1.07-1.13-7.55-.95-15,1.79-22.2,2.8-7.39,7.35-13.28,14.88-16.38,6.3-2.6,12.91-1.25,17.67,3.56,4.54,4.6,6.56,10.43,7.12,16.62.63,6.99.9,14.04.77,21.06-.14,7.41-.94,14.8-1.42,22.2-.54,8.22-1.19,16.44-1.53,24.66-.17,3.88.46,7.75,2.01,11.38.73,1.74,1.73,3.31,3.34,4.55.4-.54.72-.95,1.01-1.39,6.18-9.2,12.4-18.39,18.52-27.63,20.7-31.26,41.36-62.57,62.07-93.82.74-1.14.81-1.85,0-3.01-11.88-16.81-24.13-33.37-35.44-50.55-17.4-26.43-34.15-53.28-51.18-79.95-1.21-1.91-2.44-3.8-3.86-5.98-3.95,3.51-7.89,6.74-11.51,10.29-11.82,11.57-21.01,25.05-28.46,39.76-10.3,20.32-16.91,41.89-21.58,64.11-2.74,13.06-4.87,26.21-6.11,39.49-1.06,11.25-1.77,22.52-2.6,33.79-.23,3.23-.3,6.47-.44,9.72-.29.07-.47.12-.65.17-3.77,1.02-7.53.06-11.29-.07-.28-.02-.74-.69-.77-1.07-.16-2.62-.3-5.24-.27-7.86.09-8.93.1-17.86.43-26.78.53-14.17,2.06-28.23,4.35-42.21,3.08-18.81,7.71-37.23,14.19-55.16,11.41-31.54,27.94-60.01,50.59-84.83.84-.92.91-1.53.2-2.59-9.74-14.46-19.26-29.04-29.17-43.39-20.04-29.05-40.28-57.97-60.46-86.94-.81-1.16-1.66-2.31-2.57-3.55-.36.51-.62.86-.86,1.22-13.03,19.29-26.04,38.6-39.11,57.88-17.09,25.2-34.08,50.46-50.14,76.32-.72,1.16-.68,1.94,0,3.09,13.21,22.24,26.09,44.68,37.22,68.05,7.35,15.45,14.43,31.02,19.27,47.48,4.81,16.38,9.72,32.72,14.22,49.17,3.95,14.4,6.74,29.06,8.22,43.94.22,2.15.33,4.31.48,6.42-.35.12-.48.19-.63.21-4.55.58-9.1.45-13.62-.33-.43-.07-.97-.72-1.09-1.2-.93-3.55-1.78-7.13-2.65-10.7-6.37-25.93-12.92-51.8-21.87-76.99-7.98-22.48-16.8-44.58-29.64-64.86-6.5-10.27-12.38-20.93-19.82-30.57-2.06-2.66-4.39-5.13-6.69-7.8-30.52,43.77-57.29,89.59-87.95,132.74,5.51,9.39,83.62,122.93,86.74,126,1.35-1.51,2.82-2.9,4.01-4.52,4.71-6.38,6.29-13.76,6.35-21.49.12-13.59-3.45-26.33-9.36-38.45-1.85-3.78-3.79-7.47-4.73-11.62-1.47-6.48-2.46-12.97-.96-19.57,1.49-6.54,5.08-11.29,11.92-12.85,4.87-1.11,9.56-.1,13.97,2.05,6.88,3.35,11.98,8.63,15.82,15.16,4.6,7.77,6.72,16.26,7.21,25.29-.64,0-1.18-.1-1.68.02-1.45.32-3.34.27-4.19,1.18-1.97,2.07-4.18,4.39-4.94,7-2.25,7.65-2.68,15.55-.65,23.41.8,3.06,2.38,5.42,5.7,6.1,1.27.26,2.6.33,3.89.33,1.64,0,5.11-.24,5.11-.24,0,0-1.84.09,0,0Z" fill="#fff" stroke="#000" stroke-miterlimit="10"/>
  <g id="uuid-58711418-d7d4-4529-966b-34a51f021b40" data-name="Blatt Mitte">
    <path d="M230.9,375.53c-3.93.86-7.79,1.34-11.73.71-1.22-.2-1.67-.6-1.65-1.92.11-8.6.15-17.18.15-25.77.01-25.35.02-50.71,0-76.06-.02-30.01-.07-60.02-.12-90.03-.01-11.22-.03-22.43-.04-33.65-.03-32.2-.05-64.4-.07-96.6,0-4.61-.04-9.22-.06-13.83,0-.52,0-1.04,0-1.57l.45-.3c.12.26.18.54.34.78,17.75,25.98,35.56,51.92,53.23,77.95,9.16,13.5,18.06,27.18,27.11,40.74.77,1.15.64,1.82-.25,2.85-10.13,11.72-19.18,24.22-27.02,37.59-12.08,20.55-20.74,42.48-26.59,65.57-3.66,14.48-6.47,29.13-8.12,43.97-1.51,13.54-2.75,27.12-3.87,40.69-.75,9.13-1.1,18.3-1.63,27.45-.03.47-.14,1.45-.14,1.45,0,0,.05-.5,0,0Z" fill="#000" stroke-width="0"/>
    <path d="M221.25,413.62h10.12c.17,2.79.32,5.44.48,8.09.71,12.3,1.98,24.57,4.21,36.67,2.36,12.89,4.87,25.77,8.1,38.48,3.47,13.66,7.84,27.09,11.84,40.62.27.9.27,1.59-.27,2.41-11.15,17.12-22.26,34.25-33.37,51.37-.2.32-.45.61-.68.9-.14-.02-.29-.03-.43-.06v-178.49h0Z" fill="#000" stroke-width="0"/>
  </g>
  <g id="uuid-5f6fa17a-5ba3-4cd9-8cf9-86049abb9dad" data-name="Blatt links">
    <path d="M175.2,376.04c-3.81,0-7.52-.01-11.23,0-1.02,0-1.55-.43-1.94-1.37-2.79-6.58-5.6-13.15-8.46-19.7-2.55-5.85-5.29-11.61-9.34-16.63-5.48-6.79-12.63-10.31-21.27-10.64-3.56-.13-7.17-.36-10.73.54-3.33,1.05-3.33,1.44-4.71,2.62-8.09,7.01-10.97,16.02-10.07,26.45.67,7.79,2.95,15.19,5.78,22.42,2.34,5.98,4.77,11.93,7.39,17.79,1.65,3.71,2.34,7.56,2.54,11.54.25,4.94.4,9.89-.79,14.76-.31,1.3-.79,2.61-1.49,3.74-.51.81-1.39,1.56-2.27,1.91-1.96.79-2.84.12-2.99-1.92-.81-10.83-3.63-21.19-8.21-30.98-5.05-10.8-10.57-21.38-15.97-32.03-4.83-9.58-9.5-19.24-12.42-29.62-3.77-13.39-1.56-25.9,5.7-37.56,5.05-8.1,11.96-14.06,21.21-16.95,5.33-1.67,10.73-1.58,16.25-.9,10.03,1.23,17.55,6.8,24.44,13.52,12.29,11.98,21.32,26.24,28.53,41.71,3.96,8.53,7.06,17.36,8.85,26.61.91,4.73,1.18,14.65,1.18,14.65,0,0,.27-5.17,0,0Z" fill="#000" stroke-width="0"/>
    <path d="M153.85,499.64c-2.47-3.36-4.82-6.48-7.03-9.67-.28-.4-.07-1.29.15-1.86,3.13-8.53,6.52-16.96,9.4-25.57,3.84-11.49,6.33-23.33,8.06-35.33.62-4.32,1.23-8.62,1.9-13.29,3.12.17,6.25.32,9.37.53,1.25.09,1.69.7,1.67,2.1-.33,18.06-4.86,35.24-10.99,52.04-3.61,9.88-7.79,19.55-11.72,29.32-.19.48-.81,1.73-.81,1.73,0,0,.38-.79,0,0Z" fill="#000" stroke-width="0"/>
  </g>
  <g id="uuid-20f3b68c-d9a1-4d0b-b9a8-f5b894de9e6e" data-name="Bund">
    <path d="M275.44,404.76c-5.2,0-10.39.02-15.59,0-10.33-.04-20.67-.17-31.01-.16-19.51.01-39.03.11-58.54.17-4.13.02-8.25.13-12.38.05-4.51-.09-6.89-2.25-7.37-6.74-.43-3.82.7-7.28,3.12-10.26.34-.42,1.03-.74,1.56-.76,6.54-.16,13.09-.28,19.65-.38,8.05-.11,16.1-.25,24.16-.28,23.4-.09,46.8-.15,70.2-.17,7.77,0,15.53.17,23.28.19,1.11,0,1.46.41,1.73,1.41,1.22,4.56,1.58,9.14.48,13.77-.64,2.7-1.24,3.15-4,3.16-5.09.02-15.29,0-15.29,0,0,0,5.1,0,0,0Z" fill="#000" stroke-width="0"/>
  </g>
  <g id="uuid-d9648c59-ccc5-42fa-8a81-2f2169a50bae" data-name="Blatt rechts">
    <path d="M286.63,496c-10.49-26.14-17.87-52.97-20.03-81.27,3.98-.67,7.84-1.29,11.74-.48.38.08.83.77.89,1.21.77,6.21,1.37,12.43,2.19,18.63,2.25,16.96,5.9,33.52,13.62,48.96.24.46.29,1.32.02,1.7-2.6,3.73-5.28,7.4-7.95,11.08-.04.06-.48.16-.48.16,0,0,.3-.1,0,0Z" fill="#000" stroke-width="0"/>
    <path d="M334.21,403.01c.47-7.34,1.18-18.79,2.04-28.2.71-7.89,1.55-15.81.58-23.66-1.23-9.95-7.18-19.7-18.44-21.88-6.61-1.27-12.76.22-18.47,3.45-10.46,5.9-16.65,14.92-18.81,26.73-.97,5.28-1.96,10.57-2.88,15.86-.19,1.06-.71,1.55-1.71,1.53-2.27-.06-4.55-.13-6.82-.27-1.35-.08-2.7-.42-4.04-.42-1.11,0-1.41-.62-1.44-1.42-.13-3.43-.56-6.9-.21-10.28,2.32-23,11.25-43.27,25.69-61.2,6.15-7.64,12.98-14.54,21.69-19.32,5.94-3.27,12.23-5.41,19.05-5.52,7.89-.13,14.95,2.34,21.11,7.27,9.32,7.47,14.56,17.41,17.27,28.84,3.02,12.73,1.43,25.07-3.69,36.94-3.5,8.1-7.45,16-11.3,23.95-5.75,11.88-14.56,53.3-17.98,53.73-5.45.68-2.06-19.59-1.63-26.12Z" fill="#000" stroke-width="0"/>
  </g>
</svg>