<?xml version="1.0" encoding="UTF-8"?>
<svg id="uuid-db7275e7-5ee8-4f50-846f-62f1056f6188" data-name="farbig" xmlns="http://www.w3.org/2000/svg" width="690" height="800" xmlns:xlink="http://www.w3.org/1999/xlink" viewBox="0 0 690 800">
  <defs>
    <clipPath id="uuid-88e393e3-0cb0-41e8-9748-fd6cc7eaa183">
      <path id="uuid-14687ef9-a7d5-4973-9f49-3b303b71bbb5" data-name="rect2834" d="m1.72,1.13v451.21c0,191.37,153.69,346.53,343.28,346.53s343.28-155.14,343.28-346.53V1.13H1.72Z" fill="none"/>
    </clipPath>
    <clipPath id="uuid-6dbe6de2-5715-4d98-a628-ca81c4b06bab">
      <path id="uuid-393839ac-fbef-48d2-a0bf-e3f43887e45d" data-name="rect2834" d="m1.72,1.13v451.21c0,191.37,153.69,346.53,343.28,346.53s343.28-155.14,343.28-346.53V1.13H1.72Z" fill="none"/>
    </clipPath>
    <clipPath id="uuid-caca510b-eb3b-4f58-970f-654ef16ade40">
      <path id="uuid-e40ed70d-8164-450a-97e5-cca887a37b5c" data-name="rect2834" d="m1.72,1.13v451.21c0,191.37,153.69,346.53,343.28,346.53s343.28-155.14,343.28-346.53V1.13H1.72Z" fill="none"/>
    </clipPath>
  </defs>
  <g id="uuid-eec76fa0-8d4f-4e13-832c-a874891c221e" data-name="Hintergrund">
    <path d="m345,792.99c-90.41,0-175.42-35.55-239.36-100.09C41.69,628.34,6.47,542.51,6.47,451.21V4.75h677.06v446.46c0,91.3-35.22,177.14-99.17,241.69-63.94,64.54-148.94,100.09-239.36,100.09Z" fill="#fff"/>
    <path d="m678.78,9.5v441.71c0,45.52-8.83,89.66-26.24,131.22-16.82,40.13-40.89,76.18-71.55,107.13-30.66,30.95-66.35,55.24-106.1,72.21-41.14,17.56-84.84,26.47-129.89,26.47s-88.75-8.91-129.89-26.47c-39.74-16.97-75.44-41.27-106.1-72.22-30.66-30.96-54.74-67-71.55-107.14-17.41-41.55-26.24-85.7-26.24-131.21V9.5h667.56M688.28,0H1.72v451.21c0,191.37,153.69,346.53,343.28,346.53s343.28-155.14,343.28-346.53V0h0Z"/>
  </g>
  <g id="uuid-2bb47e54-2d9a-4fb5-8fdb-ecb0df8c0beb" data-name="Schachbrett">
    <g clip-path="url(#uuid-88e393e3-0cb0-41e8-9748-fd6cc7eaa183)">
      <g>
        <rect x="231" y="470" width="114" height="114" fill="#bb1f11" stroke="#000" stroke-width="3"/>
        <rect x="345.5" y="584" width="114" height="114" fill="#bb1f11" stroke="#000" stroke-width="3"/>
        <rect x="231" y="698" width="114" height="114" fill="#bb1f11" stroke="#000" stroke-width="3"/>
        <rect x="117" y="584" width="114" height="114" fill="#bb1f11" stroke="#000" stroke-width="3"/>
        <rect x="3" y="470" width="114" height="114" fill="#bb1f11" stroke="#000" stroke-width="3"/>
        <rect x="459.5" y="470" width="114" height="114" fill="#bb1f11" stroke="#000" stroke-width="3"/>
        <rect x="573.5" y="584" width="114" height="114" fill="#bb1f11" stroke="#000" stroke-width="3"/>
        <rect x="459.5" y="698" width="114" height="114" fill="#bb1f11" stroke="#000" stroke-width="3"/>
      </g>
    </g>
  </g>
  <g id="uuid-84793502-8037-4e36-b416-1124e2175f5f" data-name="roter Grund">
    <g clip-path="url(#uuid-6dbe6de2-5715-4d98-a628-ca81c4b06bab)">
      <g>
        <rect x="344.5" y="-1.37" width="342.16" height="471.87" fill="#bb1f11"/>
        <path d="m685.16.13v468.87h-339.16V.13h339.16m3-3h-345.16v474.87h345.16V-2.87h0Z"/>
      </g>
    </g>
  </g>
  <g id="uuid-597b11ac-3cf8-4d9f-8f54-111c46019223" data-name="Pferd">
    <path id="uuid-fed6dc06-7203-44ec-bb04-ae56249955bd" data-name="path135" d="m547.57,117.48l-4.01,3.94c-4.6,5.49-18.26,4.75-23.19,1.52-2.92-2.46-.79-1.24-4.85-3.45l-11.58-4.01c-4.47-.99-10.11,2.44-15.9.25-3.78-3.61-5.49-6.53-5.36-11.2,2.49-2.34,6.2-.81,8.38-1.96,1.85-.15,2.74-2.34,2.9-3.68.36-1.42-.53-2.34-1.12-3.38-3.96-1.75-8.91-.05-13.05-.81-2.11-.28-2.31-2.59-2.74-3.56-.3-3.66,5.18-5.46,7.11-8.28,6.2-11.23,22.91-5.59,33.96-9.45,9.42-1.7,17.6-7.14,31.09-8.2l.18,8.56-.18-8.56c0-12.83.18-14.43.18-14.43,0,0,3.07,3.1,6.17,8.48l7.98,17.22-5.66-12.9,2.74-.79-1.07-12.24,4.93,3.81c2.97,2.31,5.21,4.62,6.91,7.54,5.59,1.09,12.17-.43,19.73,1.42,2.72,1.98-11.43,4.98-7.95,9.93,3.73-2.24,22.93-3.68,20.6-1.47-4.7,4.47-10.16,4.47-8.69,8.43l7.26,3.35c3.38,3.23,6.78,8.79,6.4,13.28-3.17-1.35-11.66-9.35-11.23-2.16-1.12,3.17,2.29,4.11,3.38,7.72,3.38,5.69-2.39,9.75-3.07,14.5,1.45,4.83,7.7,4.04,11.68,3.53l-3.15,5.97c-1.35,4.67-6.88,5.79-9.8,7.42-2.39,4.22-2.46,10.95-1.7,17.17l-4.11-1.4c-3-.76-3.66-3.28-6.58-4.09l-2.49-2.46c-1.45,4.55,1.5,12.17,4.24,15.9l-2.57,1.12c-3.15,2.11-7.39-.38-11.61-1.37-.48,5.71,3.17,9.14,6.63,12.62l-3.4,1.52c-4.14,2.41-8.05,1.68-12.12,2.21-5.59.1-9.75,5.74-11.76,10.39-2.21,6.04-.58,13.33,3.25,19.02,7.11,8.48,15.09,17.86,24.15,25.42,2.46,1.32,20.73,16.99,22.55,25.04.76,2.16,1.88,5.46,2.26,6.12,3.35-1.14,11.15-1.78,10.46-6.93-.3-6.96-7.7-12.32-12.72-18.21-14.05-14.65-30.07-29.01-23.19-48.31,7.21-18.36,28.12-33.98,43.81-48.31,1.98-2.95,2.97-4.19,4.95-5.94l-.25,4.72c.25,5.71.76,9.7-4.88,16.51-.48,2.18-3.07,4.24-1.65,7.52,1.85,4.32,5.41,1.24,6.48.61l3.56-4.44v2.62c.15,4.32-3.5,7.49-7.09,15.14-2.49,5.79,3.1,11.84-1.93,16.25-2.36,2.87-7.49,4.83-7.39,8.86.58,1.45,1.52,3.96,3.61,4.29,3.86,2.79,5.87-3.07,9.09-3.17,3.45,12.06-7.09,18.11-7.09,27.53-.28,8.46,4.95,13.79,6.3,22.4,1.98,6.35-2.26,10.87-7.09,14.96-4.09,2.51-7.72,4.34-12.04,4.29l-1.32,2.97s.58,5.97-3.89,11.76c-1.09,1.6-2.64,3.91-3.23,5.13-6.83,8.64-3.58,21.39-3.68,32.05-.05,4.34,4.5,8.18,8.05,11.28,3.25,5.23,2.36,14.6-1.14,19.48-17.63,18.79-33.63,36.93-51.1,55.09-5.08-.18-8.91-.86-12.19,4.01-3.28,4.27-6.4,1.57-9.65.48-3.84.13-2.82,5.21-5.97,6.3l-22.91-.28-3.94-.69c3.91-10.67,18.97-22.27,28.78-23.7,3.63-1.68,8.66,2.95,12.57-.97l36.85-41.96c3.23-7.9-9.19-14.05-14.25-19l-1.35.25c-8.89,10.18-14.45,13.39-26.87,14.5-14.35,1.27-27.23-2.72-39.95.3-2.46,2.39-4.01,5.41-7.9,4.37-3.35-.3-7.04-3.78-9.83-1.14-2.41,1.85-.69,6.43-3.71,6.45l-27.53-.33c-.69-1.57,1.24-4.34,2.41-6.12,6.45-11.28,18.82-22.93,31.72-22.86,17.12.15,28.6,2.54,45.59-.03,1.09-.25,4.34-1.8,4.67-3.53-.18-3.58-2.54-6.2-4.67-8.53-13.28-12.27-34.11-25.35-26.74-43.3,1.42-4.47,4.98-10.03,8.69-14.71l-38.12-35.58-3.53-3.38c-2.18-.76-3.05-1.14-5.84.84-3.25,5.64-1.17,14.93-1.78,20.62,1.07,3.61,5.61,6.43,3.07,10.13-.76,2.06-4.62,4.9-2.26,7.42,2.62,2.03,8.08,3.38,8.08,3.38,0,0,2.57-.15,1.57,6.55l.48,15.87-.51,4.5-4.7-.03c-3.73-1.8-5.08-4.06-5.08-4.06,0,0-13.46-15.54-15.32-21.77,1.02-20.37-1.65-45.11,3.23-62.73.69-.74,1.24-2.31,2.26-3.4l2.49-2.64-4.47-5.46c-4.98-7.47-10.54-19.86-18.31-28.93l-2.54-2.49c-3.23,2.11-2.57,7.11-3.89,10.06-1.78,6.04,0,12.01,4.01,16.59,3.15,4.88-6.32,8.53-.15,12.57,2.24,1.68,4.95-.05,6.12,3.71,0,0-.2,11.1.28,18.79.25,3.96-2.9,4.47-2.9,4.47-5.71-3.23-13.41-10.26-16.71-15.06l-3.23-7.09c-1.3-20.09-2.34-39.67-.97-58.47,1.65-6.25,8.58-12.95,14.17-16.59,2.57-1.85,6.48-1.24,8.53-.63,11.91,9.04,23.04,21.39,34.77,31.24,30.1-17.42,51.33-22.33,58.52-32.74" fill="#fff" stroke="#000" stroke-linecap="round" stroke-linejoin="round" stroke-width="3"/>
    <path id="uuid-2cb6a936-bbc7-4191-8d92-1575955fed1f" data-name="path129" d="m602.25,258.31l2.77,15.11" fill="#fff" stroke="#000" stroke-linecap="round" stroke-linejoin="round" stroke-width="1.76"/>
    <path id="uuid-d093b7b0-7fab-4467-8db1-6adcf5433055" data-name="path131" d="m460.4,219c9.07-1.55,21.41-.18,29.41-.05m13.94,39.8l25.65,22.83m43.89-219.37c-2.46.15-14.22.13-15.44,1.37m-91.92,92.15c-4.62,2.69-11.28,7.77-13.41,14.86-1.6,4.19-4.27,11.18-4.65,16.05l-.08,7.82c2.72-.51,11.48-3.48,15.39-3.3l27.53-1.24m48.94,77.72c-3.76,3.23-7.67,8.18-8.84,12.88-1.3,4.95-3.2,10.01-.63,16.43,4.04,9.14,11.71,18.57,20.12,27.23,2.95,3.3,6.45,6.93,9.5,9.98" fill="#fff" stroke="#000" stroke-linecap="round" stroke-miterlimit="3.86" stroke-width="1.76"/>
    <path id="uuid-489d0e05-69e9-4506-9f61-f93d7a1f362f" data-name="path133" d="m527.28,83.95c6.02-4.09,10.13-3.61,15.85-.71" fill="#fff" stroke="#000" stroke-linecap="round" stroke-linejoin="round" stroke-width="1.76"/>
    <path id="uuid-20645b4e-3d60-4c60-9b09-d1a39fc41595" data-name="path137" d="m531.11,81.59c2.92-1.24,3.3-1.14,6.38-.58,4.57,7.75-4.01,8.69-6.04,5.89-1.57-2.16-.79-2.92-.33-5.31" fill="#fff" stroke="#000" stroke-miterlimit="10"/>
    <path id="uuid-fa8f4904-d874-4bf1-ae79-f4148f65712e" data-name="path139" d="m531.11,81.59c2.92-1.24,3.3-1.14,6.38-.58,4.57,7.75-4.01,8.69-6.04,5.89-1.57-2.16-.79-2.92-.33-5.31Z" stroke="#000" stroke-miterlimit="10"/>
  </g>
  <g id="uuid-95ae3fe2-dd26-4883-8be5-d7d102d53f61" data-name="schwarzer Grund">
    <g clip-path="url(#uuid-caca510b-eb3b-4f58-970f-654ef16ade40)">
      <g>
        <rect x="6.55" y="3.63" width="336.95" height="465.03"/>
        <path d="m342,5.13v462.03H8.05V5.13h333.95m3-3H5.05v468.03h339.95V2.13h0Z"/>
      </g>
    </g>
  </g>
  <g id="uuid-fbab9086-597f-4b3e-bfaa-7ecb9b7cdf4d" data-name="Wolfsangeln">
    <polygon points="103.48 195.34 141.66 194.83 63.62 240.74 63.62 88.2 37.04 87.93 103.48 50.55 103.48 195.34" fill="gold"/>
    <polygon points="273.31 194.79 311.49 194.28 233.45 240.19 233.45 87.65 206.87 87.37 273.31 50 273.31 194.79" fill="gold"/>
    <polygon points="187.49 374.6 225.67 374.09 147.63 420 147.63 267.46 121.05 267.18 187.49 229.81 187.49 374.6" fill="gold"/>
  </g>
  <g id="uuid-f6020dd1-04f1-4c15-8112-6efae17fe004" data-name="Rahmen">
    <path d="m678.78,10.63v441.71c0,45.52-8.83,89.66-26.24,131.22-16.82,40.13-40.89,76.18-71.55,107.13-30.66,30.95-66.35,55.24-106.1,72.21-41.14,17.56-84.84,26.47-129.89,26.47s-88.75-8.91-129.89-26.47c-39.74-16.97-75.44-41.27-106.1-72.22-30.66-30.96-54.74-67-71.55-107.14-17.41-41.55-26.24-85.7-26.24-131.21V10.63h667.56m9.5-9.5H1.72v451.21c0,191.37,153.69,346.53,343.28,346.53s343.28-155.14,343.28-346.53V1.13h0Z"/>
  </g>
</svg>